<?xml version="1.0" encoding="utf-8"?>
<!-- Generator: Adobe Illustrator 25.0.0, SVG Export Plug-In . SVG Version: 6.00 Build 0)  -->
<svg version="1.1" id="Слой_1" xmlns="http://www.w3.org/2000/svg" xmlns:xlink="http://www.w3.org/1999/xlink" x="0px" y="0px"
	 viewBox="0 0 40 40" style="enable-background:new 0 0 40 40;" xml:space="preserve">
<style type="text/css">
	.st0{fill:#DEFF94;}
	.st1{fill:#FFE07D;}
	.st2{fill:#FFD064;}
	.st3{fill:#FFF0AF;}
	.st4{fill:#FFC250;}
	.st5{fill:#FCBEE6;}
	.st6{fill:#FF94D5;}
	.st7{fill:#FF72C7;}
	.st8{fill:#DBEDFF;}
	.st9{fill:#B5DCFF;}
</style>
<g id="Слой_2_1_">
	<path class="st0" d="M30,40H10C4.5,40,0,35.5,0,30V10C0,4.5,4.5,0,10,0h20c5.5,0,10,4.5,10,10v20C40,35.5,35.5,40,30,40z"/>
</g>
<g>
	<path class="st1" d="M22.7,10.8H17L16.8,11v1.7l0.1,0.2h5.8l0.2-0.2V11L22.7,10.8z"/>
	<path class="st2" d="M19.9,11l0.2-0.2h-3L16.8,11v1.7l0.1,0.2h3l-0.1-0.2V11z"/>
	<path class="st3" d="M23.8,12.7h-7.8c-0.5,0-0.8,0.4-0.8,0.8s0.4,0.8,0.8,0.8h7.8c0.5,0,0.8-0.4,0.8-0.8S24.2,12.7,23.8,12.7z"/>
	<path class="st1" d="M18.1,13.6c0-0.5,0.4-0.8,0.8-0.8h-3c-0.5,0-0.8,0.4-0.8,0.8s0.4,0.8,0.8,0.8h3C18.5,14.4,18.1,14,18.1,13.6z"
		/>
	<path class="st2" d="M22.6,9.4h-5.5c-0.5,0-0.8,0.4-0.8,0.8c0,0.5,0.4,0.8,0.8,0.8h5.5c0.5,0,0.8-0.4,0.8-0.8
		C23.4,9.7,23.1,9.4,22.6,9.4z"/>
	<path class="st4" d="M19.3,10.2c0-0.5,0.4-0.8,0.8-0.8h-3c-0.5,0-0.8,0.4-0.8,0.8c0,0.5,0.4,0.8,0.8,0.8h3
		C19.7,11.1,19.3,10.7,19.3,10.2z"/>
	<path class="st5" d="M30.4,14.4H9.3c-2,0-3.6,1.6-3.6,3.6v13.4c0,2,1.6,3.6,3.6,3.6h21.1c2,0,3.6-1.6,3.6-3.6V18
		C34,16,32.4,14.4,30.4,14.4z"/>
	<path class="st6" d="M8.7,31.4V18c0-2,1.6-3.6,3.6-3.6h-3c-2,0-3.6,1.6-3.6,3.6v13.4c0,2,1.6,3.6,3.6,3.6h3
		C10.4,35,8.7,33.4,8.7,31.4z"/>
	<path class="st6" d="M9.3,16.8c-0.6,0-1.2,0.5-1.2,1.2v13.4c0,0.6,0.5,1.2,1.2,1.2h21.1c0.6,0,1.2-0.5,1.2-1.2V18
		c0-0.6-0.5-1.2-1.2-1.2H9.3z"/>
	<path class="st7" d="M11.2,31.4V18c0-0.6,0.5-1.2,1.2-1.2h-3c-0.6,0-1.2,0.5-1.2,1.2v13.4c0,0.6,0.5,1.2,1.2,1.2h3
		C11.7,32.6,11.2,32,11.2,31.4z"/>
	<ellipse class="st8" cx="19.9" cy="24.7" rx="6.9" ry="3.5"/>
	<path class="st9" d="M16.8,24.7c0-1.6,2.1-2.9,5-3.4c-0.6-0.1-1.3-0.1-1.9-0.1c-3.8,0-6.9,1.6-6.9,3.5c0,1.9,3.1,3.5,6.9,3.5
		c0.7,0,1.3,0,1.9-0.1C18.9,27.6,16.8,26.3,16.8,24.7L16.8,24.7z"/>
	<path class="st1" d="M23.9,4.6h-8c-0.4,0-0.7,0.3-0.7,0.7v3.3c0,0.4,0.3,0.7,0.7,0.7h8c0.4,0,0.7-0.3,0.7-0.7V5.3
		C24.6,4.9,24.3,4.6,23.9,4.6z"/>
	<path class="st2" d="M18.1,8.7V5.3c0-0.4,0.3-0.7,0.7-0.7h-3c-0.4,0-0.7,0.3-0.7,0.7v3.3c0,0.4,0.3,0.7,0.7,0.7h3
		C18.5,9.4,18.1,9.1,18.1,8.7L18.1,8.7z"/>
	<path class="st2" d="M18,4.6v2.2c0,0.4,0.3,0.7,0.7,0.7h2.2c0.4,0,0.7-0.3,0.7-0.7V4.6H18z"/>
	<path class="st4" d="M19.9,6.8V4.6H18v2.2c0,0.4,0.3,0.7,0.7,0.7h1.8C20.2,7.5,19.9,7.2,19.9,6.8L19.9,6.8z"/>
</g>
</svg>
