<?xml version="1.0" encoding="utf-8"?>
<!-- Generator: Adobe Illustrator 25.0.0, SVG Export Plug-In . SVG Version: 6.00 Build 0)  -->
<svg version="1.1" xmlns="http://www.w3.org/2000/svg" xmlns:xlink="http://www.w3.org/1999/xlink" x="0px" y="0px"
	 viewBox="0 0 40 40" style="enable-background:new 0 0 40 40;" xml:space="preserve">
<style type="text/css">
	.st0{fill:#FFF1BD;}
	.st1{fill:#978ECB;}
	.st2{fill:#E19974;}
	.st3{fill:#ACA6D6;}
</style>
<g id="Слой_2">
	<path class="st0" d="M30,40H10C4.5,40,0,35.5,0,30V10C0,4.5,4.5,0,10,0h20c5.5,0,10,4.5,10,10v20C40,35.5,35.5,40,30,40z"/>
</g>
<g id="Слой_4">
	<g>
		<g>
			<path class="st1" d="M28.4,13.5l6.1,5.9c0.6,0.6,0.5,1.7-0.3,2.1l-7.9,3.9l1.4-11.6C27.7,13.4,28.2,13.2,28.4,13.5L28.4,13.5z"/>
		</g>
		<g>
			<path class="st1" d="M11.6,13.5l-6.1,5.9C4.9,20,5,21.1,5.9,21.5l7.9,3.9l-1.4-11.6C12.3,13.4,11.9,13.2,11.6,13.5L11.6,13.5z"/>
		</g>
	</g>
	<path class="st1" d="M20.1,17.1c2.2,0,3.9-1.8,3.9-3.9v-1.6l-0.3,0.2l-1.3,0.7c-1.4,0.7-3.1,0.7-4.6,0l-1.6-0.8l0,0v1.6
		C16.1,15.4,17.9,17.1,20.1,17.1L20.1,17.1z"/>
	<path class="st2" d="M26.3,13.2l-5.7-4.2V7.5c0.9,0,1.6-0.8,1.6-1.7V5.7c0-1-0.8-1.7-1.7-1.7h-0.1c-1,0-1.7,0.8-1.7,1.7
		c0,0.3,0.2,0.5,0.5,0.5s0.5-0.2,0.5-0.5c0-0.4,0.3-0.8,0.8-0.8h0.1c0.4,0,0.8,0.3,0.8,0.8v0.1c0,0.4-0.3,0.7-0.7,0.7
		c-0.5,0-0.9,0.4-0.9,0.9V9L14.4,13c-0.2,0.2-0.3,0.5-0.1,0.7c0.2,0.2,0.5,0.3,0.7,0.1L20,9.9l5.7,4.1c0.1,0.1,0.2,0.1,0.3,0.1
		c0.1,0,0.3-0.1,0.4-0.2C26.5,13.7,26.5,13.4,26.3,13.2L26.3,13.2z"/>
	<path class="st3" d="M27.8,14.4l1,9.7v10.5c0,0.7-0.6,1.3-1.3,1.3h-15c-0.7,0-1.3-0.6-1.3-1.3V14.4c0-0.5,0.3-1,0.8-1.2l4.1-1.6
		v1.6c0,2.2,1.8,3.9,3.9,3.9s3.9-1.8,3.9-3.9v-1.6l4,1.6C28.5,13.4,27.8,13.9,27.8,14.4L27.8,14.4z"/>
	<g>
		<path class="st1" d="M28,13.2l-1.4-0.6c0.2,0.2,0.3,0.5,0.3,0.8v8.3C26.9,29,20.9,35,13.6,35h-2.4c0.1,0.6,0.6,1,1.2,1h15
			c0.7,0,1.3-0.6,1.3-1.3V14.4C28.8,13.9,28.5,13.4,28,13.2L28,13.2z"/>
	</g>
</g>
</svg>
