<svg id="Layer_1" enable-background="new 0 0 512 512" height="512" viewBox="0 0 512 512" width="512" xmlns="http://www.w3.org/2000/svg"><g><g><path d="m298.667 119.466 39.746-63.594c1.777-2.844 1.724-6.465-.136-9.256l-28.544-42.816c-1.582-2.374-4.247-3.8-7.1-3.8h-26.153l-20.48 4.507-20.48-4.507h-26.153c-2.853 0-5.518 1.426-7.1 3.8l-28.544 42.816c-1.86 2.791-1.914 6.412-.136 9.256l39.751 63.601v7.239h85.415z" fill="#a4c7ff"/><path d="m338.277 46.616-28.544-42.816c-1.583-2.374-4.247-3.8-7.1-3.8h-23.694c2.853 0 5.517 1.426 7.1 3.8l28.544 42.816c1.86 2.791 1.914 6.412.136 9.256l-39.747 63.594.086 7.246h23.694l-.086-7.246 39.746-63.594c1.779-2.844 1.726-6.465-.135-9.256z" fill="#91b6ff"/><path d="m273.065 119.473 17.068-68.273-13.653-51.2h-40.96l-13.653 51.2 17.069 68.279v7.233h34.131z" fill="#7da8ff"/><path d="m336.183 43.474h-160.366l-2.095 3.142c-1.86 2.791-1.914 6.412-.136 9.256l1.909 3.055h161.009l1.909-3.055c1.777-2.844 1.724-6.465-.136-9.256z" fill="#7092ff"/></g><g fill="#ffdc67"><path d="m228.528 145.771h54.943v17.17h-54.943z"/><path d="m256 153.6c-98.969 0-179.2 80.23-179.2 179.2s80.231 179.2 179.2 179.2 179.2-80.231 179.2-179.2-80.231-179.2-179.2-179.2zm0 324.267c-80.118 0-145.067-64.949-145.067-145.067s64.949-145.067 145.067-145.067 145.067 64.949 145.067 145.067-64.949 145.067-145.067 145.067z"/><path d="m307.2 153.6c9.426 0 17.067-7.641 17.067-17.067s-7.641-17.067-17.067-17.067h-102.4c-9.426 0-17.067 7.641-17.067 17.067s7.641 17.067 17.067 17.067z"/></g><g fill="#a4c7ff"><path d="m119.467 43.474h-9.341v-9.34c0-4.268-3.459-7.726-7.726-7.726s-7.726 3.459-7.726 7.726v9.34h-9.34c-4.267 0-7.726 3.459-7.726 7.726s3.459 7.726 7.726 7.726h9.34v9.34c0 4.268 3.459 7.726 7.726 7.726s7.726-3.459 7.726-7.726v-9.34h9.341c4.267 0 7.726-3.459 7.726-7.726s-3.459-7.726-7.726-7.726z"/><path d="m426.667 43.474h-9.341v-9.34c0-4.268-3.459-7.726-7.726-7.726-4.268 0-7.726 3.459-7.726 7.726v9.34h-9.34c-4.268 0-7.726 3.459-7.726 7.726s3.459 7.726 7.726 7.726h9.34v9.34c0 4.268 3.459 7.726 7.726 7.726 4.268 0 7.726-3.459 7.726-7.726v-9.34h9.341c4.268 0 7.726-3.459 7.726-7.726s-3.458-7.726-7.726-7.726z"/></g><path d="m256 153.6c-3.982 0-7.93.144-11.847.399 93.445 6.101 167.353 83.813 167.353 178.8s-73.908 172.701-167.353 178.801c3.917.256 7.865.4 11.847.4 98.969 0 179.2-80.231 179.2-179.2s-80.231-179.2-179.2-179.2z" fill="#ffb957"/><path d="m307.2 119.467h-23.634c9.425 0 17.067 7.641 17.067 17.067s-7.641 17.067-17.067 17.067h23.634c9.426 0 17.067-7.641 17.067-17.067s-7.641-17.067-17.067-17.067z" fill="#ffb957"/><g><g><path d="m298.667 341.333h-51.2c-4.713 0-8.533-3.82-8.533-8.533v-81.067c0-2.686 1.265-5.215 3.413-6.827l25.6-19.2c3.034-2.276 7.206-2.276 10.24 0l25.6 19.2c2.149 1.612 3.413 4.141 3.413 6.827v81.067c0 4.713-3.821 8.533-8.533 8.533z" fill="#ff5856"/><path d="m303.787 244.907-25.6-19.2c-3.034-2.276-7.206-2.276-10.24 0l-6.727 5.045 18.873 14.155c2.149 1.612 3.413 4.141 3.413 6.827v81.066c0 4.713-3.82 8.533-8.533 8.533h23.694c4.713 0 8.533-3.82 8.533-8.533v-81.067c0-2.686-1.265-5.215-3.413-6.826z" fill="#f54745"/><path d="m238.933 299.474h68.267v15.453h-68.267z" fill="#f9f5f5"/></g><g><path d="m273.066 263.726c-4.268 0-7.726-3.459-7.726-7.726v-102.4c0-4.268 3.459-7.726 7.726-7.726 4.268 0 7.726 3.459 7.726 7.726v102.4c.001 4.268-3.458 7.726-7.726 7.726z" fill="#f9f5f5"/></g></g></g></svg>