<?xml version="1.0" encoding="utf-8"?>
<!-- Generator: Adobe Illustrator 25.0.0, SVG Export Plug-In . SVG Version: 6.00 Build 0)  -->
<svg version="1.1" id="Слой_1" xmlns="http://www.w3.org/2000/svg" xmlns:xlink="http://www.w3.org/1999/xlink" x="0px" y="0px"
	 viewBox="0 0 40 40" style="enable-background:new 0 0 40 40;" xml:space="preserve">
<style type="text/css">
	.st0{fill:#CDC9AA;}
	.st1{fill:#FFFFFF;}
	.st2{fill:#FF4F19;}
	.st3{fill:#5C546A;}
	.st4{fill:#B9BBC1;}
	.st5{fill:#FFD200;}
	.st6{fill:#53DCFF;}
	.st7{fill:#E9001E;}
	.st8{fill:#8B8996;}
</style>
<g id="Слой_3">
	<g id="Слой_2_1_">
		<path class="st0" d="M30,40H10C4.5,40,0,35.5,0,30V10C0,4.5,4.5,0,10,0h20c5.5,0,10,4.5,10,10v20C40,35.5,35.5,40,30,40z"/>
	</g>
</g>
<g id="Слой_4">
	<g>
		<g>
			<rect x="6.5" y="10.4" class="st1" width="26.9" height="16.6"/>
		</g>
		<g>
			<rect x="6.5" y="10.4" class="st2" width="26.9" height="4.1"/>
		</g>
		<g>
			<path class="st3" d="M33.1,8.3H6.8c-1.3,0-2.4,1.1-2.4,2.4v18.9c0,0.3,0.2,0.5,0.5,0.5H35c0.3,0,0.5-0.2,0.5-0.5V10.7
				C35.5,9.4,34.4,8.3,33.1,8.3z M6.5,26.5V10.9c0-0.3,0.2-0.5,0.5-0.5h25.9c0.3,0,0.5,0.2,0.5,0.5v15.5c0,0.3-0.2,0.5-0.5,0.5H7
				C6.7,27,6.5,26.8,6.5,26.5z"/>
		</g>
		<g>
			<path class="st4" d="M36,29.1H3.9c-0.3,0-0.5,0.2-0.5,0.5l0,0c0,1.1,0.9,2.1,2.1,2.1h29c1.1,0,2.1-0.9,2.1-2.1l0,0
				C36.5,29.3,36.3,29.1,36,29.1z"/>
		</g>
		<g>
			<g>
				<path class="st5" d="M12.7,13H9.1c-0.3,0-0.5-0.2-0.5-0.5S8.8,12,9.1,12h3.6c0.3,0,0.5,0.2,0.5,0.5C13.2,12.8,13,13,12.7,13z"/>
			</g>
		</g>
		<g>
			<g>
				<path class="st1" d="M22,13h-0.5c-0.3,0-0.5-0.2-0.5-0.5s0.2-0.5,0.5-0.5H22c0.3,0,0.5,0.2,0.5,0.5S22.3,13,22,13z"/>
			</g>
		</g>
		<g>
			<g>
				<path class="st1" d="M24.6,13h-0.5c-0.3,0-0.5-0.2-0.5-0.5s0.2-0.5,0.5-0.5h0.5c0.3,0,0.5,0.2,0.5,0.5S24.9,13,24.6,13z"/>
			</g>
		</g>
		<g>
			<g>
				<path class="st1" d="M27.2,13h-0.5c-0.3,0-0.5-0.2-0.5-0.5s0.2-0.5,0.5-0.5h0.5c0.3,0,0.5,0.2,0.5,0.5S27.5,13,27.2,13z"/>
			</g>
		</g>
		<g>
			<g>
				<path class="st1" d="M29.8,13h-0.5c-0.3,0-0.5-0.2-0.5-0.5S29,12,29.3,12h0.5c0.3,0,0.5,0.2,0.5,0.5S30.1,13,29.8,13z"/>
			</g>
		</g>
		<g>
			<path class="st6" d="M17.9,25.4H9.1c-0.3,0-0.5-0.2-0.5-0.5v-8.3c0-0.3,0.2-0.5,0.5-0.5h8.8c0.3,0,0.5,0.2,0.5,0.5v8.3
				C18.4,25.2,18.2,25.4,17.9,25.4z"/>
		</g>
		<g>
			<g>
				<path class="st2" d="M30.3,17.1h-9.8c-0.3,0-0.5-0.2-0.5-0.5s0.2-0.5,0.5-0.5h9.8c0.3,0,0.5,0.2,0.5,0.5S30.6,17.1,30.3,17.1z"
					/>
			</g>
		</g>
		<g>
			<g>
				<path class="st4" d="M24.6,21.3h-4.1c-0.3,0-0.5-0.2-0.5-0.5s0.2-0.5,0.5-0.5h4.1c0.3,0,0.5,0.2,0.5,0.5S24.9,21.3,24.6,21.3z"
					/>
			</g>
		</g>
		<g>
			<g>
				<path class="st4" d="M24.6,23.4h-4.1c-0.3,0-0.5-0.2-0.5-0.5s0.2-0.5,0.5-0.5h4.1c0.3,0,0.5,0.2,0.5,0.5
					C25.1,23.1,24.9,23.4,24.6,23.4z"/>
			</g>
		</g>
		<g>
			<g>
				<path class="st4" d="M24.6,25.4h-4.1c-0.3,0-0.5-0.2-0.5-0.5s0.2-0.5,0.5-0.5h4.1c0.3,0,0.5,0.2,0.5,0.5
					C25.1,25.2,24.9,25.4,24.6,25.4z"/>
			</g>
		</g>
		<g>
			<g>
				<path class="st4" d="M30.8,21.3h-4.1c-0.3,0-0.5-0.2-0.5-0.5s0.2-0.5,0.5-0.5h4.1c0.3,0,0.5,0.2,0.5,0.5S31.1,21.3,30.8,21.3z"
					/>
			</g>
		</g>
		<g>
			<g>
				<path class="st4" d="M30.8,23.4h-4.1c-0.3,0-0.5-0.2-0.5-0.5s0.2-0.5,0.5-0.5h4.1c0.3,0,0.5,0.2,0.5,0.5
					C31.3,23.1,31.1,23.4,30.8,23.4z"/>
			</g>
		</g>
		<g>
			<g>
				<path class="st4" d="M30.8,25.4h-4.1c-0.3,0-0.5-0.2-0.5-0.5s0.2-0.5,0.5-0.5h4.1c0.3,0,0.5,0.2,0.5,0.5
					C31.3,25.2,31.1,25.4,30.8,25.4z"/>
			</g>
		</g>
		<g>
			<g>
				<path class="st7" d="M27.2,19.2h-6.7c-0.3,0-0.5-0.2-0.5-0.5s0.2-0.5,0.5-0.5h6.7c0.3,0,0.5,0.2,0.5,0.5S27.5,19.2,27.2,19.2z"
					/>
			</g>
		</g>
		<g>
			<path class="st8" d="M17.9,30.1H22c0.6,0,1-0.5,1-1h-6.2C16.8,29.6,17.3,30.1,17.9,30.1z"/>
		</g>
	</g>
</g>
</svg>
