<?xml version="1.0" encoding="utf-8"?>
<!-- Generator: Adobe Illustrator 25.0.0, SVG Export Plug-In . SVG Version: 6.00 Build 0)  -->
<svg version="1.1" xmlns="http://www.w3.org/2000/svg" xmlns:xlink="http://www.w3.org/1999/xlink" x="0px" y="0px"
	 viewBox="0 0 40 40" style="enable-background:new 0 0 40 40;" xml:space="preserve">
<style type="text/css">
	.st0{fill:#FFF1DF;}
	.st1{fill:#CC3831;}
	.st2{fill:#D64740;}
	.st3{fill:#E3584B;}
	.st4{fill:#CCCFD1;}
	.st5{fill:#D6D9DB;}
</style>
<g id="Слой_3">
	<g id="Слой_2_1_">
		<path class="st0" d="M30,40H10C4.5,40,0,35.5,0,30V10C0,4.5,4.5,0,10,0h20c5.5,0,10,4.5,10,10v20C40,35.5,35.5,40,30,40z"/>
	</g>
</g>
<g id="Слой_5">
	<path class="st1" d="M32.8,16l2.7,2.5l-2.7,2.5l-2.7-2.5L32.8,16z"/>
	<path class="st2" d="M26.4,18.5c0,2.1,1.8,3.8,4.1,3.8h2.8c0.3,0,0.6-0.1,0.7-0.4c0.2-0.2,0.2-0.5,0.1-0.8c-0.8-2.3-2-4.5-3.7-6.3
		C28.2,14.7,26.4,16.4,26.4,18.5z"/>
	<path class="st3" d="M26.4,18.5c0-2.1,1.8-3.8,4.1-3.8h2.8c0.3,0,0.6,0.1,0.7,0.4c0.2,0.2,0.2,0.5,0.1,0.8c-0.8,2.3-2,4.5-3.7,6.3
		C28.2,22.2,26.4,20.5,26.4,18.5z"/>
	<path class="st1" d="M19.1,6.7L21.6,4L24,6.7l-2.5,2.7L19.1,6.7z"/>
	<path class="st2" d="M21.6,13.1c2.1,0,3.8-1.8,3.8-4.1V6.2c0-0.3-0.1-0.6-0.4-0.7c-0.2-0.2-0.5-0.2-0.8-0.1c-2.3,0.8-4.5,2-6.3,3.7
		C17.8,11.3,19.5,13.1,21.6,13.1z"/>
	<path class="st3" d="M21.6,13.1c-2.1,0-3.8-1.8-3.8-4.1V6.2c0-0.3,0.1-0.6,0.4-0.7c0.2-0.2,0.5-0.2,0.8-0.1c2.3,0.8,4.5,2,6.3,3.7
		C25.3,11.3,23.6,13.1,21.6,13.1z"/>
	<path class="st1" d="M28.5,7.7h3.8v3.8h-3.8V7.7z"/>
	<path class="st2" d="M25.7,14.1c1.6,1.6,4.1,1.6,5.7,0l1.9-1.9c0.2-0.2,0.3-0.5,0.3-0.8c0-0.3-0.2-0.6-0.5-0.7l-2.2-1.2
		C30,9,29.1,8.7,28.2,8.6c-1.3-0.1-2.6,0.6-3.2,1.8C24.5,11.7,24.8,13.1,25.7,14.1z"/>
	<path class="st3" d="M25.9,14.1c-1.6-1.6-1.6-4.1,0-5.7l1.9-1.9c0.2-0.2,0.5-0.3,0.8-0.3c0.3,0,0.6,0.2,0.7,0.5L30.6,9
		c0.4,0.8,0.7,1.6,0.8,2.5c0.1,1.3-0.6,2.6-1.8,3.2C28.3,15.3,26.9,15,25.9,14.1z"/>
	<path class="st4" d="M11.9,28.6l2.7-23c9.1,3.9,16.2,11.3,19.7,20.6l0.1,0.3L11.9,28.6z"/>
	<path class="st5" d="M14.6,5.6l-2.7,23c0,0,7-2.1,9.1-9.1C23.7,10.7,14.6,5.6,14.6,5.6z"/>
	<path class="st5" d="M4.9,28.1l7,7v-7H4.9z"/>
	<path class="st3" d="M17.6,30.5c-0.2-0.7-0.7-1.3-1.4-1.5l-3.8-1.3l-0.9-3.5c-0.2-0.9-1.1-1.5-2-1.5c-0.9,0-1.8,0.6-2,1.5
		c-0.3,0.9,0.1,1.9,0.9,2.4l2.9,1.7c-0.8,1.1-3.1,4.1-6.8,4.1v1.1c3,0,5.2-1.7,6.5-3.1c-0.5,1.8-1.6,3.9-3.9,4.2l0.1,1.1
		c3.3-0.4,4.6-3.8,5-5.9l1.3,2.4c0.3,0.6,1,1.1,1.7,1.1c0.1,0,0.2,0,0.2,0c0.6,0,1.3-0.3,1.7-0.8C17.6,31.9,17.8,31.2,17.6,30.5z
		 M8.9,25.6c-0.4-0.2-0.6-0.7-0.5-1.1c0.1-0.4,0.5-0.7,1-0.7s0.9,0.3,1,0.8L11,27L8.9,25.6z M16.3,31.8c-0.2,0.3-0.6,0.4-1,0.4
		c-0.4,0-0.7-0.3-0.9-0.6L13,29l2.8,0.9c0.4,0.1,0.6,0.4,0.7,0.8C16.6,31.1,16.5,31.5,16.3,31.8z"/>
</g>
</svg>
