<?xml version="1.0" encoding="utf-8"?>
<!-- Generator: Adobe Illustrator 25.0.0, SVG Export Plug-In . SVG Version: 6.00 Build 0)  -->
<svg version="1.1" xmlns="http://www.w3.org/2000/svg" xmlns:xlink="http://www.w3.org/1999/xlink" x="0px" y="0px"
	 viewBox="0 0 40 40" style="enable-background:new 0 0 40 40;" xml:space="preserve">
<style type="text/css">
	.st0{fill:#57BFCD;}
	.st1{fill:#E94444;}
	.st2{fill:#D83131;}
	.st3{fill:#FE9738;}
	.st4{fill:#FE860A;}
	.st5{fill:#BBEC6C;}
	.st6{fill:#A2E62E;}
	.st7{fill:#FEE45A;}
	.st8{fill:#FEDF30;}
	.st9{fill:#9E5528;}
	.st10{fill:#904D24;}
	.st11{fill:#E57917;}
</style>
<g id="Слой_3">
	<g id="Слой_2_1_">
		<path class="st0" d="M30,40H10C4.5,40,0,35.5,0,30V10C0,4.5,4.5,0,10,0h20c5.5,0,10,4.5,10,10v20C40,35.5,35.5,40,30,40z"/>
	</g>
</g>
<g id="Слой_5">
	<g>
		<path class="st1" d="M33.6,28.8H6.4c-1.2,0-2.1-0.9-2.1-2.1v-0.4c0-1.2,0.9-2.1,2.1-2.1h27.2c1.2,0,2.1,0.9,2.1,2.1v0.4
			C35.7,27.9,34.8,28.8,33.6,28.8z"/>
		<path class="st2" d="M35.7,26.3v0.4c0,1.2-0.9,2.1-2.1,2.1h-1.2c1.2,0,2.1-0.9,2.1-2.1v-0.4c0-1.2-0.9-2.1-2.1-2.1h1.2
			C34.8,24.1,35.7,25.1,35.7,26.3z"/>
		<path class="st3" d="M33.6,28.8H20H6.4c0,0-0.9,4.5,4.4,6.3c0.9,0.3,1.9,0.4,2.8,0.4H20h6.4c1,0,1.9-0.1,2.8-0.4
			C34.5,33.3,33.6,28.8,33.6,28.8L33.6,28.8z"/>
		<path class="st4" d="M29.2,35.1c-0.9,0.3-1.9,0.4-2.8,0.4h-1.4c1,0,1.9-0.1,2.8-0.4c5.3-1.8,4.4-6.3,4.4-6.3h1.4
			C33.6,28.8,34.5,33.3,29.2,35.1z"/>
		<path class="st5" d="M33.6,25c0,1.1-1.2,1.6-2,1c-0.3-0.3-0.7-0.5-1.4-0.5c-1.7,0-1.7,1.4-3.4,1.4s-1.7-1.4-3.4-1.4
			c-1.7,0-1.7,1.4-3.4,1.4c-1.7,0-1.7-1.4-3.4-1.4c-1.7,0-1.7,1.4-3.4,1.4c-1.7,0-1.7-1.4-3.4-1.4c-0.6,0-1,0.2-1.4,0.5
			c-0.8,0.7-2,0.1-2-1v-2.5h27.3L33.6,25L33.6,25z"/>
		<path class="st6" d="M33.6,22.5V25c0,1-1.1,1.6-1.9,1.1c0.4-0.2,0.6-0.6,0.6-1.1v-2.5L33.6,22.5z"/>
		<path class="st7" d="M6.4,20.5v2h2.9c0.6,0,1.1,0.5,1.1,1.1v5.8c0,0.8,0.6,1.4,1.4,1.4s1.4-0.6,1.4-1.4v-5.8
			c0-0.6,0.5-1.1,1.1-1.1h19.3v-2L6.4,20.5z"/>
		<path class="st8" d="M32.4,20.5h1.3v2h-1.3V20.5z"/>
		<path class="st9" d="M33.6,20.6H6.4c-1.2,0-2.1-0.9-2.1-2.1v-0.4c0-1.2,0.9-2.1,2.1-2.1h27.2c1.2,0,2.1,0.9,2.1,2.1v0.4
			C35.7,19.7,34.8,20.6,33.6,20.6z"/>
		<path class="st10" d="M35.7,18.1v0.4c0,1.2-0.9,2.1-2.1,2.1h-1.2c1.2,0,2.1-0.9,2.1-2.1v-0.4c0-1.2-0.9-2.1-2.1-2.1h1.2
			C34.8,16,35.7,16.9,35.7,18.1z"/>
		<path class="st3" d="M20,4.4C9.4,4.6,5.8,10.3,4.7,13.7C4.3,14.8,5.1,16,6.3,16H20h13.7c1.2,0,2.1-1.2,1.7-2.4
			C34.1,10.3,30.6,4.6,20,4.4L20,4.4z"/>
		<path class="st4" d="M33.7,16h-0.2c0.4-0.5,0.6-1.1,0.4-1.8c-1.2-3.3-4.7-9.1-15.3-9.2c-2.7,0-5,0.5-6.9,1.1
			c2.1-1,4.9-1.6,8.3-1.7c10.6,0.2,14.1,5.9,15.3,9.2C35.7,14.8,34.9,16,33.7,16L33.7,16z"/>
		<g>
			<g>
				<path class="st11" d="M15.6,9.3c-0.1,0-0.1,0-0.2-0.1c-0.2-0.1-0.3-0.4-0.2-0.6l0.4-0.8c0.1-0.2,0.4-0.3,0.6-0.2
					c0.2,0.1,0.3,0.4,0.2,0.6L16,9.1C15.9,9.2,15.8,9.3,15.6,9.3z"/>
			</g>
			<g>
				<path class="st11" d="M20,9.4c-0.3,0-0.5-0.2-0.5-0.5V8c0-0.3,0.2-0.5,0.5-0.5c0.3,0,0.5,0.2,0.5,0.5v0.9
					C20.5,9.1,20.2,9.4,20,9.4z"/>
			</g>
			<g>
				<path class="st11" d="M24.4,9.3c-0.2,0-0.3-0.1-0.4-0.2l-0.4-0.7c-0.1-0.2-0.1-0.5,0.2-0.6c0.2-0.1,0.5-0.1,0.6,0.2l0.4,0.7
					c0.1,0.2,0.1,0.5-0.2,0.6C24.5,9.3,24.5,9.3,24.4,9.3z"/>
			</g>
		</g>
	</g>
</g>
</svg>
