<?xml version="1.0" encoding="utf-8"?>
<!-- Generator: Adobe Illustrator 25.0.0, SVG Export Plug-In . SVG Version: 6.00 Build 0)  -->
<svg version="1.1" id="Слой_1" xmlns="http://www.w3.org/2000/svg" xmlns:xlink="http://www.w3.org/1999/xlink" x="0px" y="0px"
	 viewBox="0 0 40 40" style="enable-background:new 0 0 40 40;" xml:space="preserve">
<style type="text/css">
	.st0{fill:#653D9E;}
	.st1{fill:#F4DD45;}
	.st2{fill:#ECC32E;}
	.st3{fill:#81A7C6;}
	.st4{fill:#5C90B9;}
	.st5{fill:#C17D4F;}
	.st6{fill:#E49542;}
	.st7{fill:#E28424;}
	.st8{fill:#E2F4F9;}
	.st9{fill:#75CEF9;}
	.st10{fill:#6BBEF6;}
	.st11{fill:#4A80AA;}
	.st12{fill:#B1E4F9;}
</style>
<g id="Слой_2_1_">
	<path class="st0" d="M30,40H10C4.5,40,0,35.5,0,30V10C0,4.5,4.5,0,10,0h20c5.5,0,10,4.5,10,10v20C40,35.5,35.5,40,30,40z"/>
</g>
<g id="Слой_1_1_">
	<g>
		<g>
			<g>
				<path class="st1" d="M31.8,33V17.6L20.2,8c-0.2-0.2-0.6-0.2-0.8,0L7.9,17.6V33H31.8z"/>
			</g>
			<g>
				<path class="st2" d="M19.4,8L7.9,17.6v2.3l11.4-9.1c0.4-0.3,0.9-0.3,1.3,0l9,7.5c0.2,0.2,0.4,0.5,0.4,0.8v14h2V17.6L20.2,8
					C20,7.8,19.7,7.8,19.4,8L19.4,8z"/>
			</g>
			<g>
				<path class="st3" d="M6.2,33.6v0.8c0,0.3,0.3,0.6,0.6,0.6h26c0.3,0,0.6-0.3,0.6-0.6v-0.8c0-0.3-0.3-0.6-0.6-0.6h-26
					C6.5,33,6.2,33.3,6.2,33.6z"/>
			</g>
			<g>
				<path class="st4" d="M31.7,33v2h1.1c0.3,0,0.6-0.3,0.6-0.6v-0.8c0-0.3-0.3-0.6-0.6-0.6C32.8,33,31.7,33,31.7,33z"/>
			</g>
			<g>
				<path class="st5" d="M17.9,19.4h-7.4c-0.3,0-0.6,0.3-0.6,0.6v10.1l4.5,2.8h4.1V20C18.5,19.7,18.2,19.4,17.9,19.4L17.9,19.4z"/>
			</g>
			<g>
				<path class="st6" d="M13.4,6.6H8.5V14l4.9-4.1V6.6z"/>
			</g>
			<g>
				<path class="st7" d="M13.4,9V8.1H8.5V9h2v1.1h-2V11h4.9v-0.9h-2V9H13.4z"/>
			</g>
			<g>
				<path class="st8" d="M14.3,33l-1.2-1.6C13,31.2,12.7,31,12.3,31h-0.2c-0.3,0-0.6-0.2-0.8-0.4c-0.2-0.3-0.5-0.4-0.8-0.4H9.8V33
					H14.3L14.3,33z"/>
			</g>
			<g>
				<path class="st9" d="M29.8,24l-0.7,1.1l0.7,1.7h-9.4V20c0-0.3,0.3-0.6,0.6-0.6h8.2c0.3,0,0.6,0.3,0.6,0.6L29.8,24L29.8,24z"/>
			</g>
			<g>
				<path class="st10" d="M29.8,24l-0.7,1.1l0.7,1.7h-1.5v-7.4h0.9c0.3,0,0.6,0.3,0.6,0.6V24z"/>
			</g>
			<g>
				<path class="st8" d="M25.3,26.8l1.2-1.6c0.2-0.3,0.5-0.4,0.8-0.4h0.2c0.3,0,0.6-0.2,0.8-0.4c0.2-0.3,0.5-0.4,0.8-0.4h0.6v2.8
					H25.3L25.3,26.8z"/>
			</g>
			<g>
				<path class="st4" d="M29.8,26.8h-9.4v1.4c0,0.3,0.3,0.6,0.6,0.6h8.2c0.3,0,0.6-0.3,0.6-0.6L29.8,26.8z"/>
			</g>
			<g>
				<path class="st11" d="M29.8,26.8h-1.5v2h0.9c0.3,0,0.6-0.3,0.6-0.6V26.8L29.8,26.8z"/>
			</g>
			<g>
				<path class="st8" d="M14,6.6H7.9c-0.2,0-0.4-0.2-0.4-0.4V5c0-0.2,0.2-0.4,0.4-0.4H14c0.2,0,0.4,0.2,0.4,0.4v1.2
					C14.3,6.4,14.2,6.6,14,6.6z"/>
			</g>
			<g>
				<path class="st12" d="M14,6.6h-1.1v-2H14c0.2,0,0.4,0.2,0.4,0.4v1.2C14.3,6.4,14.2,6.6,14,6.6z"/>
			</g>
			<g>
				<circle class="st9" cx="19.8" cy="14" r="2.6"/>
			</g>
		</g>
		<g>
			<path class="st8" d="M19.4,4.9L5.2,16.7c-0.2,0.3-0.3,0.7,0,0.9L6,18.4c0.2,0.2,0.6,0.3,0.9,0.1L19.4,8c0.2-0.2,0.6-0.2,0.8,0
				l12.7,10.5c0.3,0.2,0.6,0.2,0.9-0.1l0.8-0.8c0.2-0.3,0.2-0.7-0.1-0.9L20.2,4.9C20,4.7,19.7,4.7,19.4,4.9L19.4,4.9z"/>
		</g>
		<g>
			<path class="st12" d="M31.4,17.3l1.5,1.3c0.3,0.2,0.6,0.2,0.9-0.1l0.8-0.8c0.2-0.3,0.2-0.7-0.1-0.9L33,15.5L31.4,17.3z"/>
		</g>
		<g>
			<path class="st12" d="M16.5,21h-4.7c-0.3,0-0.5,0.2-0.5,0.5V25c0,0.3,0.2,0.5,0.5,0.5h4.7c0.3,0,0.5-0.2,0.5-0.5v-3.5
				C17,21.2,16.8,21,16.5,21z"/>
		</g>
		<g>
			<path class="st2" d="M16.5,27.3h-0.6c-0.2,0-0.4-0.2-0.4-0.4c0-0.2,0.2-0.4,0.4-0.4h0.6c0.2,0,0.4,0.2,0.4,0.4
				C16.9,27.1,16.7,27.3,16.5,27.3z"/>
		</g>
	</g>
</g>
</svg>
