<?xml version="1.0" encoding="utf-8"?>
<!-- Generator: Adobe Illustrator 25.0.0, SVG Export Plug-In . SVG Version: 6.00 Build 0)  -->
<svg version="1.1" id="Layer_1" xmlns="http://www.w3.org/2000/svg" xmlns:xlink="http://www.w3.org/1999/xlink" x="0px" y="0px"
	 viewBox="0 0 512 512" style="enable-background:new 0 0 512 512;" xml:space="preserve">
<style type="text/css">
	.st0{fill:#FFB456;}
	.st1{fill:#FF9A56;}
	.st2{fill:#FFDC67;}
	.st3{fill:#FFB957;}
	.st4{fill:#F9F5F5;}
	.st5{fill:#E2D8EC;}
	.st6{fill:#D5C6E4;}
	.st7{fill:#C6B4DA;}
	.st8{fill:#FF5856;}
	.st9{fill:#365E7D;}
</style>
<path class="st0" d="M54.1,350.7l-10.3-30.9c-2-6.1-0.9-12.8,3-17.8l38-48.9L254.2,83.8l48.9-38c5.1-3.9,11.7-5.1,17.8-3l30.9,10.3
	L460,161.3l10.3,30.9c2,6.1,0.9,12.8-3,17.8l-38,48.9L259.9,428.2l-48.9,38c-5.1,3.9-11.7,5.1-17.8,3L162.3,459L54.1,350.7z"/>
<path class="st1" d="M470.3,192.2L460,161.3l-39.4-39.4l23.1,70.3c2,6.1,0.9,12.8-3,17.8l-38,48.9L233.3,428.2l-48.9,38
	c0,0-0.1,0.1-0.1,0.1l8.9,3c6.1,2,12.8,0.9,17.8-3l48.9-38l169.4-169.4l38-48.9C471.2,204.9,472.3,198.3,470.3,192.2L470.3,192.2z"
	/>
<path class="st2" d="M5,410.5c-6.7,6.7-6.7,17.5,0,24.1l72.4,72.4c6.7,6.7,17.5,6.7,24.1,0l20-20l9.3-18.9l14.8-5.3l317.2-317.2
	l7-17.5l17.1-6.7l20-20c6.7-6.7,6.7-17.5,0-24.1L434.6,5.1c-6.7-6.7-17.5-6.7-24.1,0l-20,20l-4.3,17.8l-19.8,6.4L49.1,366.4
	l-6.9,15.1l-17.2,9L5,410.5z"/>
<path class="st3" d="M507,77.5L434.6,5.1c-6.6-6.6-17.2-6.7-23.9-0.2c0.1,0.1,0.1,0.1,0.2,0.2l72.4,72.4c6.7,6.7,6.7,17.5,0,24.1
	L77.8,507.1c-0.1,0.1-0.1,0.1-0.2,0.2c6.7,6.5,17.3,6.4,23.9-0.2l20-20l9.3-18.9l14.9-5.3l317.1-317.1l7-17.5l17.1-6.7l20-20
	C513.7,95,513.7,84.1,507,77.5L507,77.5z"/>
<path class="st4" d="M49.2,366.4l96.5,96.5L121.6,487L25,390.5L49.2,366.4z"/>
<path class="st4" d="M390.4,25l96.5,96.5l-24.1,24.1l-96.5-96.5L390.4,25z"/>
<g>
	<path class="st5" d="M475.2,109.8L451,133.9l11.8,11.8l2.5-2.5l21.7-21.7L475.2,109.8z"/>
	<path class="st5" d="M109.6,475.2l24.1-24.1l11.8,11.8L121.5,487L109.6,475.2z"/>
</g>
<g>
	<path class="st6" d="M352.4,392l33.2,33.2c3.7,3.7,9.8,3.7,13.5,0l27.1-27.1c3.7-3.7,3.7-9.8,0-13.5L393,351.4L352.4,392z"/>
	<path class="st7" d="M426.2,384.6L393,351.4l-13.3,13.3l19.9,19.9c3.7,3.7,3.7,9.8,0,13.5l-20.5,20.5l6.5,6.5
		c3.7,3.7,9.8,3.7,13.5,0l27.1-27.1C429.9,394.4,429.9,388.3,426.2,384.6L426.2,384.6z"/>
	<circle class="st2" cx="257" cy="256" r="172.2"/>
	<path class="st3" d="M378.8,134.3c-37-37-86.7-53.6-135.1-49.9c39.6,3,78.3,19.7,108.5,49.9c67.3,67.3,67.3,176.3,0,243.6
		c-30.2,30.2-69,46.9-108.5,49.9c48.4,3.7,98.1-12.9,135.1-49.9C446.1,310.6,446.1,201.5,378.8,134.3L378.8,134.3z"/>
	<circle class="st4" cx="257" cy="256" r="134"/>
	<path class="st5" d="M351.8,161.3c-29.5-29.5-69.4-42.4-108-38.6c29.7,2.9,58.7,15.8,81.4,38.6c52.3,52.3,52.3,137.1,0,189.4
		c-22.8,22.8-51.7,35.6-81.4,38.6c38.6,3.8,78.5-9,108-38.6C404.1,298.4,404.1,213.6,351.8,161.3L351.8,161.3z"/>
	<g>
		<path class="st8" d="M321.3,200.4c-2.2,0-4.4-0.8-6.1-2.5c-3.4-3.4-3.4-8.9,0-12.3l6.8-6.8c3.4-3.4,8.9-3.4,12.3,0
			c3.4,3.4,3.4,8.9,0,12.3l-6.8,6.8C325.7,199.6,323.5,200.4,321.3,200.4z"/>
	</g>
	<g>
		<path class="st9" d="M257,173.8c-4.8,0-8.7-3.9-8.7-8.7v-9.6c0-4.8,3.9-8.7,8.7-8.7c4.8,0,8.7,3.9,8.7,8.7v9.6
			C265.7,169.9,261.8,173.8,257,173.8z"/>
	</g>
	<g>
		<path class="st8" d="M192.8,200.4c-2.2,0-4.4-0.8-6.1-2.5l-6.8-6.8c-3.4-3.4-3.4-8.9,0-12.3c3.4-3.4,8.9-3.4,12.3,0l6.8,6.8
			c3.4,3.4,3.4,8.9,0,12.3C197.2,199.6,195,200.4,192.8,200.4z"/>
	</g>
	<g>
		<path class="st9" d="M166.1,264.7h-9.6c-4.8,0-8.7-3.9-8.7-8.7c0-4.8,3.9-8.7,8.7-8.7h9.6c4.8,0,8.7,3.9,8.7,8.7
			C174.8,260.8,170.9,264.7,166.1,264.7z"/>
	</g>
	<g>
		<path class="st8" d="M186,335.7c-2.2,0-4.4-0.8-6.1-2.5c-3.4-3.4-3.4-8.9,0-12.3l6.8-6.8c3.4-3.4,8.9-3.4,12.3,0
			c3.4,3.4,3.4,8.9,0,12.3l-6.8,6.8C190.4,334.9,188.2,335.7,186,335.7z"/>
	</g>
	<g>
		<path class="st9" d="M257,365.2c-4.8,0-8.7-3.9-8.7-8.7v-9.6c0-4.8,3.9-8.7,8.7-8.7c4.8,0,8.7,3.9,8.7,8.7v9.6
			C265.7,361.3,261.8,365.2,257,365.2z"/>
	</g>
	<g>
		<path class="st8" d="M328.1,335.7c-2.2,0-4.4-0.8-6.1-2.5l-6.8-6.8c-3.4-3.4-3.4-8.9,0-12.3c3.4-3.4,8.9-3.4,12.3,0l6.8,6.8
			c3.4,3.4,3.4,8.9,0,12.3C332.5,334.9,330.3,335.7,328.1,335.7z"/>
	</g>
	<g>
		<path class="st9" d="M357.5,264.7h-9.6c-4.8,0-8.7-3.9-8.7-8.7c0-4.8,3.9-8.7,8.7-8.7h9.6c4.8,0,8.7,3.9,8.7,8.7
			C366.2,260.8,362.3,264.7,357.5,264.7z"/>
	</g>
	<g>
		<path class="st9" d="M270.6,251.2c-2.2,0-4.4-0.8-6.1-2.5c-3.4-3.4-3.4-8.9,0-12.3l27.1-27.1c3.4-3.4,8.9-3.4,12.3,0
			c3.4,3.4,3.4,8.9,0,12.3l-27.1,27.1C275,250.3,272.8,251.2,270.6,251.2L270.6,251.2z"/>
	</g>
	<g>
		<path class="st9" d="M297.6,305.3c-2.2,0-4.4-0.8-6.1-2.5l-27.1-27.1c-3.4-3.4-3.4-8.9,0-12.3c3.4-3.4,8.9-3.4,12.3,0l27.1,27.1
			c3.4,3.4,3.4,8.9,0,12.3C302.1,304.4,299.8,305.3,297.6,305.3L297.6,305.3z"/>
	</g>
	<circle class="st2" cx="257" cy="256" r="19.1"/>
</g>
</svg>
