<?xml version="1.0" encoding="utf-8"?>
<!-- Generator: Adobe Illustrator 25.0.0, SVG Export Plug-In . SVG Version: 6.00 Build 0)  -->
<svg version="1.1" id="Слой_1" xmlns="http://www.w3.org/2000/svg" xmlns:xlink="http://www.w3.org/1999/xlink" x="0px" y="0px"
	 viewBox="0 0 40 40" style="enable-background:new 0 0 40 40;" xml:space="preserve">
<style type="text/css">
	.st0{fill:#EEEEEE;}
	.st1{fill:#FBB03B;}
	.st2{fill:#F7931E;}
	.st3{fill:#F15A24;}
</style>
<g id="Слой_2_1_">
	<path class="st0" d="M30,40H10C4.5,40,0,35.5,0,30V10C0,4.5,4.5,0,10,0h20c5.5,0,10,4.5,10,10v20C40,35.5,35.5,40,30,40z"/>
</g>
<g id="Слой_3">
	<path class="st1" d="M4,11.2v5.5c1.8,0,3.3,1.5,3.3,3.3S5.8,23.4,4,23.4v5.5h32v-5.5c-1.8,0-3.3-1.5-3.3-3.3s1.5-3.3,3.3-3.3l0,0
		v-5.5H4V11.2z"/>
	<path class="st2" d="M13.9,11.2H4v5.5c1.8,0,3.3,1.5,3.3,3.3S5.8,23.4,4,23.4v5.5h9.9V11.2z"/>
	<g>
		<rect x="33.2" y="12.9" class="st3" width="1.1" height="1.1"/>
		<rect x="33.2" y="26.1" class="st3" width="1.1" height="1.1"/>
		<path class="st3" d="M20,19c-1.2,0-2.2-1-2.2-2.2s1-2.2,2.2-2.2s2.2,1,2.2,2.2S21.2,19,20,19z M20,15.6c-0.6,0-1.1,0.5-1.1,1.1
			s0.5,1.1,1.1,1.1s1.1-0.5,1.1-1.1S20.6,15.6,20,15.6z"/>
		<path class="st3" d="M26.6,25.6c-1.2,0-2.2-1-2.2-2.2s1-2.2,2.2-2.2s2.2,1,2.2,2.2S27.8,25.6,26.6,25.6z M26.6,22.3
			c-0.6,0-1.1,0.5-1.1,1.1s0.5,1.1,1.1,1.1s1.1-0.5,1.1-1.1S27.2,22.3,26.6,22.3z"/>
		
			<rect x="17.1" y="19.5" transform="matrix(0.7071 -0.7071 0.7071 0.7071 -7.3217 22.3887)" class="st3" width="12.5" height="1.1"/>
		<rect x="13.4" y="21.7" class="st3" width="1.1" height="1.1"/>
		<rect x="13.4" y="23.9" class="st3" width="1.1" height="1.1"/>
		<rect x="13.4" y="26.1" class="st3" width="1.1" height="1.1"/>
		<rect x="13.4" y="19.5" class="st3" width="1.1" height="1.1"/>
		<rect x="13.4" y="17.3" class="st3" width="1.1" height="1.1"/>
		<rect x="13.4" y="15.1" class="st3" width="1.1" height="1.1"/>
		<rect x="13.4" y="12.9" class="st3" width="1.1" height="1.1"/>
		<rect x="5.7" y="12.9" class="st3" width="1.1" height="1.1"/>
		<rect x="5.7" y="26.1" class="st3" width="1.1" height="1.1"/>
	</g>
</g>
</svg>
