<svg version="1.1" class="tags_container_svg" xmlns="http://www.w3.org/2000/svg" xmlns:xlink="http://www.w3.org/1999/xlink" x="0px" y="0px" viewBox="0 0 512 512" style="enable-background:new 0 0 512 512;" xml:space="preserve">
<circle style="fill:#87D7F5;" cx="256" cy="256" r="256"/>
<g>
	<path style="fill:#BAEAF7;" d="M149.162,145.479H75.308c-7.358,0-13.323-5.965-13.323-13.323s5.965-13.323,13.323-13.323h30.854
		c7.358,0,13.323-5.965,13.323-13.323s-5.965-13.323-13.323-13.323H59.281c-30.86,37.019-51.46,82.881-57.455,133.23h125.336
		c7.358,0,13.323-5.965,13.323-13.323s-5.965-13.323-13.323-13.323h-21.354c-7.358,0-13.323-5.965-13.323-13.323
		s5.965-13.323,13.323-13.323h43.354c7.358,0,13.323-5.965,13.323-13.323C162.485,151.444,156.52,145.479,149.162,145.479z"/>
	<path style="fill:#BAEAF7;" d="M493.011,352.884h-7.465h-13.854c-7.358,0-13.323-5.965-13.323-13.323l0,0
		c0-7.358-5.965-13.323-13.323-13.323h-51.978c-7.174,0-13.347,5.513-13.684,12.679c-0.36,7.651,5.736,13.967,13.308,13.967h20.978
		c7.174,0,13.347,5.513,13.684,12.679c0.36,7.651-5.736,13.967-13.308,13.967h-49.978c-7.174,0-13.347,5.513-13.684,12.679
		c-0.36,7.651,5.736,13.967,13.308,13.967h99.632C475.228,389.772,485.229,371.901,493.011,352.884z"/>
</g>
<rect x="351.94" y="271.04" style="fill:#EA5050;" width="75.62" height="102.68"/>
<rect x="351.94" y="271.04" style="fill:#D84545;" width="19.02" height="102.68"/>
<path style="fill:#EA5050;" d="M440.242,368.824c0-2.304-1.709-4.172-3.817-4.172h-93.35c-2.108,0-3.818,1.867-3.818,4.172v89.525
	h73.555c9.727-7.549,18.894-15.782,27.43-24.63V368.824z"/>
<g>
	<path style="fill:#D84545;" d="M374.752,364.652h-31.678c-2.108,0-3.817,1.867-3.817,4.172v89.525h31.678v-89.525
		C370.935,366.52,372.644,364.652,374.752,364.652z"/>
	<path style="fill:#D84545;" d="M440.997,356.689h-7.964c-18.187,0-40.174,0-60.694,0h-2.481h-5.482h-2.481h-5.375h-7.964
		c-4.399,0-7.964,3.565-7.964,7.964s3.565,7.964,7.964,7.964h7.964h5.375h2.481h5.482h2.481h5.376h7.964c9.832,0,31.869,0,39.498,0
		h2.481h5.375h7.964c4.399,0,7.964-3.565,7.964-7.964S445.396,356.689,440.997,356.689z"/>
</g>
<path style="fill:#C93A3A;" d="M363.398,364.652c0-4.399,3.565-7.964,7.964-7.964h-1.504h-5.482h-2.481h-5.375h-7.964
	c-4.399,0-7.964,3.565-7.964,7.964s3.565,7.964,7.964,7.964h7.964h5.375h2.481h5.482h1.504
	C366.964,372.616,363.398,369.051,363.398,364.652z"/>
<rect x="214.67" y="144.24" style="fill:#EA5050;" width="75.62" height="122.02"/>
<rect x="214.67" y="144.24" style="fill:#D84545;" width="22.736" height="122.02"/>
<g>
	<path style="fill:#F9A5A5;" d="M237.711,218.962c-4.391,0-7.964,3.573-7.964,7.964v14.251c0,1.466,1.188,2.654,2.654,2.654h10.618
		c1.466,0,2.654-1.188,2.654-2.654v-14.251C245.674,222.535,242.102,218.962,237.711,218.962z"/>
	<path style="fill:#F9A5A5;" d="M267.256,218.962c-4.391,0-7.964,3.573-7.964,7.964v14.251c0,1.466,1.188,2.654,2.655,2.654h10.618
		c1.466,0,2.655-1.188,2.655-2.654v-14.251C275.22,222.535,271.648,218.962,267.256,218.962z"/>
</g>
<rect x="214.67" y="243.83" style="fill:#D84545;" width="75.62" height="22.427"/>
<rect x="214.67" y="243.83" style="fill:#C93A3A;" width="23.04" height="22.427"/>
<path style="fill:#EA5050;" d="M294.241,258.294h-83.514c-3.431,0-6.213,2.782-6.213,6.213v193.842h95.94V264.507
	C300.453,261.076,297.672,258.294,294.241,258.294z"/>
<path style="fill:#D84545;" d="M243.005,258.294h-32.279c-3.431,0-6.213,2.781-6.213,6.213v193.842h32.279V264.507
	C236.793,261.076,239.574,258.294,243.005,258.294z"/>
<g>
	<path style="fill:#F9A5A5;" d="M384.98,400.528c-4.391,0-7.964,3.573-7.964,7.964v14.25c0,1.466,1.188,2.655,2.655,2.655h10.618
		c1.466,0,2.655-1.188,2.655-2.655v-14.25C392.944,404.101,389.372,400.528,384.98,400.528z"/>
	<path style="fill:#F9A5A5;" d="M414.526,400.528c-4.391,0-7.964,3.573-7.964,7.964v14.25c0,1.466,1.188,2.655,2.655,2.655h10.618
		c1.466,0,2.655-1.188,2.655-2.655v-14.25C422.489,404.101,418.917,400.528,414.526,400.528z"/>
	<path style="fill:#F9A5A5;" d="M355.435,400.528c-4.391,0-7.964,3.573-7.964,7.964v14.25c0,1.466,1.188,2.655,2.654,2.655h10.618
		c1.466,0,2.655-1.188,2.655-2.655v-14.25C363.398,404.101,359.826,400.528,355.435,400.528z"/>
</g>
<path style="fill:#EA5050;" d="M56.161,415.988c12.627,15.752,27.073,29.98,43.028,42.362h32.597v-88.92H56.161V415.988z"/>
<path style="fill:#D84545;" d="M56.161,415.988c7.123,8.885,14.814,17.295,23.04,25.152v-71.71h-23.04
	C56.161,369.43,56.161,415.988,56.161,415.988z"/>
<g>
	<path style="fill:#F9A5A5;" d="M108.746,400.528c-4.391,0-7.964,3.573-7.964,7.964v14.25c0,1.466,1.188,2.655,2.654,2.655h10.618
		c1.466,0,2.654-1.188,2.654-2.655v-14.25C116.709,404.101,113.137,400.528,108.746,400.528z"/>
	<path style="fill:#F9A5A5;" d="M79.201,400.528c-4.392,0-7.964,3.573-7.964,7.964v14.25c0,1.466,1.188,2.655,2.655,2.655H84.51
		c1.466,0,2.655-1.188,2.655-2.655v-14.25C87.164,404.101,83.592,400.528,79.201,400.528z"/>
</g>
<path style="fill:#77C680;" d="M130.844,281.784L130.844,281.784L130.844,281.784c-0.425-0.399-1.134-1.049-1.572-1.435
	l-33.161-30.137c-1.218-1.107-3.079-1.107-4.297,0l-33.154,30.13c-0.443,0.39-1.152,1.039-1.582,1.444l0,0l0,0
	c-10.153,9.737-16.615,23.559-16.615,38.738c0,8.498,1.99,16.528,5.516,23.664l8.268,15.774c9.655,0,69.753,0,79.432,0l8.268-15.774
	l0,0C152.235,323.365,147.907,298.147,130.844,281.784z"/>
<path style="fill:#68BA6E;" d="M54.247,359.963h22.532l-4.587-15.774c-1.956-7.137-3.06-15.167-3.06-23.665
	c0-15.178,3.585-29.001,9.217-38.738c0.239-0.404,0.632-1.054,0.878-1.444l17.854-29.249l-0.97-0.881
	c-1.218-1.107-3.079-1.107-4.297,0l-33.154,30.13c-0.443,0.39-1.152,1.04-1.582,1.444c-10.153,9.737-16.615,23.56-16.615,38.738
	c0,8.498,1.99,16.528,5.516,23.665L54.247,359.963z"/>
<path style="fill:#FCCB5B;" d="M68.143,359.963c11.876-22.682,33.193-47.19,70.819-68.291c-2.32-3.618-5.046-6.943-8.118-9.888
	c-0.425-0.4-1.134-1.049-1.572-1.435l-33.161-30.137c-1.218-1.107-3.079-1.107-4.297,0l-33.154,30.13
	c-0.443,0.39-1.152,1.04-1.582,1.444c-10.153,9.737-16.615,23.56-16.615,38.738c0,8.498,1.99,16.528,5.516,23.665l8.268,15.774
	H68.143z"/>
<path style="fill:#FBB659;" d="M54.247,359.963h13.896c1.713-3.271,3.628-6.58,5.754-9.91l-1.705-5.864
	c-1.956-7.137-3.06-15.167-3.06-23.665c0-15.178,3.585-29.001,9.217-38.738c0.239-0.404,0.632-1.054,0.878-1.444l17.854-29.249
	l-0.97-0.881c-1.218-1.107-3.079-1.107-4.297,0l-33.154,30.13c-0.443,0.39-1.152,1.04-1.582,1.444
	c-10.153,9.737-16.615,23.56-16.615,38.738c0,8.498,1.99,16.528,5.516,23.665L54.247,359.963z"/>
<path style="fill:#FCCB5B;" d="M101.383,359.963h32.295c4.704-10.559,14.546-21.499,13.726-41.617
	C126.877,331.583,112.051,345.843,101.383,359.963z"/>
<path style="fill:#77C680;" d="M47.17,346.462c9.562-24.642,29.483-52.953,69.775-77.315l-20.834-18.934
	c-1.218-1.107-3.079-1.107-4.297,0l-33.154,30.13c-0.443,0.39-1.152,1.04-1.582,1.444c-10.153,9.737-16.615,23.56-16.615,38.738
	c0,8.498,1.99,16.528,5.516,23.665L47.17,346.462z"/>
<path style="fill:#68BA6E;" d="M47.17,346.462c4.691-12.088,11.884-25.059,22.742-38.014c1.34-10.344,4.344-19.585,8.437-26.661
	c0.239-0.404,0.632-1.054,0.878-1.444l17.854-29.249l-0.97-0.881c-1.218-1.107-3.079-1.107-4.297,0l-33.154,30.13
	c-0.443,0.39-1.152,1.04-1.582,1.444c-10.153,9.737-16.615,23.56-16.615,38.738c0,8.498,1.99,16.528,5.516,23.665L47.17,346.462z"/>
<g>
	<path style="fill:#D84545;" d="M132.284,356.689c-15.545,0-61.062,0-76.622,0c-4.399,0-7.964,3.565-7.964,7.964
		s3.565,7.964,7.964,7.964c8.698,0,58.554,0,68.658,0h7.964c4.399,0,7.964-3.565,7.964-7.964S136.683,356.689,132.284,356.689z"/>
	<path style="fill:#D84545;" d="M132.284,425.397c-19.843,0-48.307,0-68.204,0c4.878,5.522,9.978,10.845,15.31,15.927
		c17.637,0,35.275,0,52.894,0c4.399,0,7.964-3.565,7.964-7.963C140.248,428.962,136.683,425.397,132.284,425.397z"/>
</g>
<path style="fill:#C93A3A;" d="M72.784,364.652c0-4.399,3.565-7.964,7.964-7.964c-15.428,0-9.78,0-25.085,0
	c-4.399,0-7.964,3.565-7.964,7.964s3.565,7.964,7.964,7.964c4.936,0,20.112,0,25.085,0
	C76.349,372.616,72.784,369.051,72.784,364.652z"/>
<rect x="141.17" y="271.04" style="fill:#FC6D6D;" width="75.62" height="102.68"/>
<rect x="141.17" y="271.04" style="fill:#F95E5A;" width="22.22" height="102.68"/>
<path style="fill:#569FDB;" d="M232.483,222.121c0-15.178-6.326-28.874-16.479-38.611l0,0
	c-45.988-41.805-32.22-29.291-34.872-31.701c-1.218-1.107-3.079-1.107-4.297,0c-0.105,0.095-34.393,31.252-34.736,31.574l0,0l0,0
	c-10.153,9.737-16.615,23.559-16.615,38.738c0,18.872,9.126,28.983,13.784,39.439h39.716H218.7l8.268-15.774l0,0
	C230.493,238.649,232.483,230.619,232.483,222.121z"/>
<path style="fill:#FCCB5B;" d="M215.319,222.121c0-15.178-4.297-28.874-11.193-38.611l0,0
	c-32.457-43.443-21.262-28.46-23.685-31.701c-0.827-1.107-2.091-1.107-2.919,0c-0.081,0.108-23.379,31.279-23.592,31.574l0,0l0,0
	c-11.619,16.407-14.507,41.636-7.539,62.402l5.616,15.774h26.974h26.975l5.615-15.774l0,0
	C213.967,238.649,215.319,230.619,215.319,222.121z"/>
<path style="fill:#4794C9;" d="M155.006,181.94c23.23-30.665,22.397-30.961,23.977-30.961c-0.77,0-1.54,0.277-2.149,0.831
	c-0.105,0.095-34.411,31.269-34.736,31.574c-10.153,9.737-16.615,23.559-16.615,38.738c0,18.872,9.126,28.983,13.784,39.439h12.742
	l-5.616-15.774C138.773,223.077,143.274,197.127,155.006,181.94z"/>
<path style="fill:#569FDB;" d="M188.637,183.51L188.637,183.51c-12.267-42.76-8.277-28.851-9.094-31.701
	c-0.318-1.107-0.803-1.107-1.121,0c-0.029,0.101-8.971,31.259-9.059,31.574l0,0l0,0c-9.229,33.935-0.956,74.947-0.738,78.176h10.357
	h10.358l2.156-15.774l0,0C193.915,227.013,193.468,201.275,188.637,183.51z"/>
<path style="fill:#FCCB5B;" d="M169.776,181.94c8.973-30.847,8.616-30.961,9.206-30.961c-0.523,0-1.046,0.277-1.459,0.831
	c-0.077,0.103-23.368,31.264-23.592,31.574c-11.643,16.44-14.493,41.677-7.539,62.402l5.616,15.774h16.617
	C168.458,259.062,160.065,214.68,169.776,181.94z"/>
<path style="fill:#FBB659;" d="M164.35,181.94c14.245-30.812,13.689-30.961,14.633-30.961c-0.523,0-1.046,0.277-1.459,0.831
	c-0.077,0.103-23.368,31.264-23.592,31.574c-11.643,16.44-14.493,41.677-7.539,62.402l5.616,15.774h10.512l-3.427-15.774
	C155.085,226.212,156.112,199.411,164.35,181.94z"/>
<path style="fill:#77C680;" d="M217.294,258.294h-7.964h-5.375h-7.964h-34.016h-7.964h-5.375h-7.964
	c-4.399,0-7.964,3.565-7.964,7.964s3.565,7.964,7.964,7.964h7.964h5.375h7.964h34.016h7.964h5.375h7.964
	c4.399,0,7.964-3.565,7.964-7.964C225.257,261.859,221.692,258.294,217.294,258.294z"/>
<path style="fill:#68BA6E;" d="M158.239,266.258c0-4.399,3.565-7.964,7.964-7.964h-4.228h-7.964h-5.375h-7.964
	c-4.399,0-7.964,3.565-7.964,7.964c0,4.398,3.565,7.964,7.964,7.964h7.964h5.375h7.964h4.228
	C161.804,274.221,158.239,270.656,158.239,266.258z"/>
<path style="fill:#FC6D6D;" d="M229.475,458.349V353.606c0-2.696-1.709-4.881-3.817-4.881h-93.35c-2.108,0-3.817,2.185-3.817,4.881
	v104.743H229.475z"/>
<path style="fill:#F95E5A;" d="M167.207,348.725h-34.9c-2.108,0-3.817,2.185-3.817,4.881v104.743h34.9V353.606
	C163.39,350.91,165.099,348.725,167.207,348.725z"/>
<polygon style="fill:#FCCB5B;" points="263.775,131.089 290.961,131.089 262.214,41.057 254.574,41.057 "/>
<polygon style="fill:#F8A748;" points="250.393,41.057 242.753,41.057 214.006,131.089 241.192,131.089 "/>
<path style="fill:#FBB659;" d="M255.947,41.057c-0.15,0-7.171,0-6.927,0l-10.233,90.033c9.58,0,17.812,0,27.393,0L255.947,41.057z"
	/>
<path style="fill:#D84545;" d="M290.794,161.315c-19.348,0-21.168,0-55.319,0h-7.964h-5.375h-7.964
	c-4.399,0-7.964,3.565-7.964,7.964s3.565,7.964,7.964,7.964c5.535,0,8.707,0,13.339,0h7.964c10.45,0,42.739,0,55.319,0
	c4.399,0,7.964-3.565,7.964-7.964S295.193,161.315,290.794,161.315z"/>
<path style="fill:#C93A3A;" d="M230.764,169.279c0-4.399,3.565-7.964,7.964-7.964h-3.252h-7.964h-5.375h-7.964
	c-4.399,0-7.964,3.565-7.964,7.964s3.565,7.964,7.964,7.964c5.535,0,8.707,0,13.339,0h7.964h3.252
	C234.329,177.242,230.764,173.677,230.764,169.279z"/>
<g>
	<path style="fill:#E0E2E2;" d="M252.484,0c-4.398,0-7.964,3.565-7.964,7.964c0,0.172,0,8.131,0,8.03v7.964v3.254h15.927v-3.254
		c0-5.337,0-9.999,0-15.993C260.447,3.565,256.882,0,252.484,0z"/>
	<path style="fill:#E0E2E2;" d="M178.983,129.883c-4.398,0-7.964,3.565-7.964,7.964c0,5.497,0-1.078,0,15.993v3.254h15.927v-3.254
		c0-5.718,0-10.275,0-15.993C186.946,133.449,183.382,129.883,178.983,129.883z"/>
	<path style="fill:#E0E2E2;" d="M93.963,228.288c-4.399,0-7.964,3.565-7.964,7.964v2.654v5.375v7.964v3.254h15.927v-3.254v-7.964
		v-5.375v-2.654C101.926,231.853,98.361,228.288,93.963,228.288z"/>
</g>
<path style="fill:#CACACC;" d="M269.735,33.713c0-4.399-3.565-7.964-7.964-7.964c-0.168,0-13.787,0-13.339,0h-5.237
	c-4.399,0-7.964,3.565-7.964,7.964s3.565,7.964,7.964,7.964h5.237c0.164,0,8.305,0,8.102,0h5.237
	C266.17,41.676,269.735,38.111,269.735,33.713z"/>
<path style="fill:#B3BBBC;" d="M252.484,33.713c0-4.399,3.565-7.964,7.964-7.964c-0.418,0-12.269,0-12.015,0h-5.237
	c-4.399,0-7.964,3.565-7.964,7.964s3.565,7.964,7.964,7.964h5.237c0.164,0,8.305,0,8.102,0h3.913
	C256.049,41.676,252.484,38.111,252.484,33.713z"/>
<path style="fill:#77C680;" d="M99.188,458.349C142.512,491.972,196.914,512,256,512s113.488-20.028,156.811-53.651
	C385.437,458.349,105.687,458.349,99.188,458.349z"/>
<path style="fill:#68BA6E;" d="M163.41,494.729v-36.38H99.188C118.569,473.39,140.166,485.708,163.41,494.729z"/>
<path style="fill:#5AA85E;" d="M277.497,320.176c0-15.179,4.389-29.001,11.285-38.738c0.292-0.404,0.774-1.054,1.074-1.443
	l22.518-30.131c0.414-0.554,0.936-0.83,1.459-0.83c-0.77,0-1.539,0.277-2.149,0.83l-33.154,30.131
	c-0.443,0.389-1.152,1.039-1.582,1.443c-10.153,9.737-16.615,23.56-16.615,38.738c0,8.498,1.99,16.527,5.516,23.664l8.268,15.774
	h12.742l-5.616-15.774C278.848,336.703,277.497,328.674,277.497,320.176z"/>
<path style="fill:#77C680;" d="M350.854,281.564l-0.416-0.387c-0.425-0.399-0.856-0.791-1.294-1.176l-33.161-30.137
	c-0.609-0.554-1.379-0.83-2.148-0.83c0.523,0,1.046,0.277,1.459,0.83L337.815,280c0.298,0.385,0.59,0.777,0.879,1.176l0.283,0.387
	c6.896,9.738,11.193,23.433,11.193,38.612c0,8.498-1.352,16.527-3.746,23.664l-5.616,15.774h12.742l8.268-15.774
	c3.526-7.137,5.516-15.166,5.516-23.664C367.333,304.997,361.007,291.302,350.854,281.564z"/>
<g>
	<path style="fill:#FCCB5B;" d="M349.487,340.761h-85.029c0.435,1.042,0.894,2.071,1.392,3.079l6.734,12.848h76.903l5.251,0.659
		l7.08-13.508c0.498-1.007,0.956-2.037,1.391-3.079h-13.722V340.761z"/>
	<path style="fill:#FCCB5B;" d="M261.545,308.907c-0.79,3.639-1.212,7.409-1.212,11.269c0,1.571,0.09,3.121,0.224,4.658h88.93
		h17.623c0.133-1.537,0.224-3.087,0.224-4.658c0-3.867-0.415-7.635-1.195-11.269h-16.652H261.545z"/>
	<path style="fill:#FCCB5B;" d="M349.487,292.98h10.403c-2.491-4.206-5.528-8.052-9.035-11.416l-0.416-0.387
		c-0.425-0.399-0.856-0.791-1.294-1.176l-3.244-2.948h-64.132l-3.237,2.942c-0.443,0.389-1.152,1.039-1.582,1.443
		c-3.533,3.388-6.605,7.28-9.128,11.542H349.487z"/>
	<path style="fill:#FCCB5B;" d="M350.169,320.175c0-15.178-4.297-28.874-11.193-38.611l0,0l-0.283-0.387
		c-0.289-0.4-0.581-0.791-0.879-1.177l-22.523-30.137c-0.828-1.107-2.091-1.107-2.919,0l-22.518,30.13
		c-0.301,0.39-0.782,1.039-1.074,1.444l0,0l0,0c-6.896,9.737-11.285,23.559-11.285,38.738c0,8.498,1.352,16.528,3.746,23.665
		l5.616,15.774h26.974h26.974l5.616-15.774l0,0C348.818,336.703,350.169,328.674,350.169,320.175z"/>
</g>
<g>
	<path style="fill:#77C680;" d="M280.298,340.761c0.296,1.042,0.607,2.071,0.945,3.079l4.574,12.848h56.032l4.574-12.848
		c0.338-1.007,0.65-2.037,0.945-3.079H280.298z"/>
	<path style="fill:#77C680;" d="M349.358,308.907H278.32c-0.537,3.639-0.823,7.409-0.823,11.269c0,1.571,0.061,3.121,0.152,4.658
		h71.838h0.531c0.091-1.537,0.152-3.087,0.152-4.658C350.169,316.309,349.887,312.54,349.358,308.907z"/>
	<path style="fill:#77C680;" d="M345.114,292.98c-1.692-4.206-3.755-8.052-6.137-11.416l-0.283-0.387
		c-0.289-0.399-0.582-0.791-0.879-1.176l-2.203-2.948h-43.557l-2.198,2.942c-0.301,0.389-0.782,1.039-1.074,1.443
		c-2.399,3.388-4.486,7.28-6.199,11.542H345.114z"/>
	<path style="fill:#77C680;" d="M327.785,320.175c0-15.178-1.65-28.874-4.298-38.611l0,0l-0.109-0.387
		c-0.111-0.4-0.223-0.791-0.338-1.177l-8.648-30.137c-0.318-1.107-0.803-1.107-1.121,0l-8.646,30.13
		c-0.116,0.39-0.3,1.039-0.413,1.444l0,0l0,0c-2.648,9.737-4.333,23.559-4.333,38.738c0,8.498,0.519,16.528,1.439,23.665
		l2.156,15.774h10.357h10.358l2.156-15.774l0,0C327.266,336.703,327.785,328.674,327.785,320.175z"/>
</g>
<path style="fill:#F8A748;" d="M312.374,249.864l-22.518,30.131c-0.301,0.389-0.782,1.039-1.074,1.443
	c-6.896,9.737-11.285,23.56-11.285,38.738c0,8.498,1.352,16.527,3.746,23.664l5.616,15.774h16.617l-2.156-15.774
	c-0.919-7.137-1.439-15.166-1.439-23.664c0-15.179,1.685-29.001,4.333-38.738c0.112-0.404,0.297-1.054,0.413-1.443l8.646-30.131
	c0.159-0.554,0.36-0.83,0.56-0.83C313.31,249.033,312.787,249.31,312.374,249.864z"/>
<path style="fill:#FCCB5B;" d="M300.957,340.761c0.114,1.042,0.233,2.071,0.363,3.079l1.756,12.848h21.515l1.756-12.848
	c0.13-1.007,0.249-2.037,0.363-3.079H300.957z"/>
<path style="fill:#5AA85E;" d="M300.957,340.761h-20.659c0.296,1.042,0.607,2.071,0.945,3.079l4.574,12.848h17.259l-1.756-12.848
	C301.19,342.832,301.07,341.803,300.957,340.761z"/>
<path style="fill:#F8A748;" d="M280.298,340.761h-15.841c0.435,1.042,0.894,2.071,1.392,3.079l7.21,13.755l12.758-0.907
	l-4.574-12.848C280.905,342.832,280.594,341.803,280.298,340.761z"/>
<path style="fill:#FCCB5B;" d="M327.785,320.176c0-3.867-0.108-7.635-0.312-11.269h-27.277c-0.206,3.639-0.316,7.409-0.316,11.269
	c0,1.571,0.024,3.121,0.058,4.658h27.788C327.762,323.297,327.785,321.747,327.785,320.176z"/>
<path style="fill:#5AA85E;" d="M300.197,308.907H278.32c-0.537,3.639-0.823,7.409-0.823,11.269c0,1.571,0.061,3.121,0.152,4.658
	h22.291c-0.035-1.537-0.058-3.087-0.058-4.658C299.881,316.316,299.991,312.546,300.197,308.907z"/>
<path style="fill:#F8A748;" d="M278.32,308.907h-16.775c-0.79,3.639-1.212,7.409-1.212,11.269c0,1.571,0.09,3.121,0.224,4.658
	h17.092c-0.09-1.537-0.152-3.087-0.152-4.658C277.497,316.316,277.783,312.546,278.32,308.907z"/>
<path style="fill:#FCCB5B;" d="M325.844,292.98c-0.65-4.206-1.441-8.052-2.356-11.416l-0.109-0.387
	c-0.111-0.399-0.223-0.791-0.338-1.176l-0.846-2.948H305.47l-0.844,2.942c-0.116,0.389-0.3,1.039-0.413,1.443
	c-0.921,3.388-1.723,7.28-2.38,11.542H325.844z"/>
<path style="fill:#5AA85E;" d="M304.626,279.994l0.844-2.942h-13.416l-2.198,2.942c-0.301,0.389-0.782,1.039-1.074,1.443
	c-2.399,3.388-4.486,7.28-6.199,11.542h19.251c0.658-4.262,1.459-8.154,2.38-11.542
	C304.326,281.033,304.511,280.384,304.626,279.994z"/>
<path style="fill:#F8A748;" d="M289.856,279.994l2.198-2.942h-10.287l-3.237,2.942c-0.443,0.389-1.152,1.039-1.582,1.443
	c-3.533,3.388-6.605,7.28-9.128,11.542h14.762c1.713-4.262,3.8-8.154,6.199-11.542C289.074,281.033,289.555,280.384,289.856,279.994
	z"/>
<path style="fill:#E0E2E2;" d="M313.823,228.288c-4.399,0-7.964,3.565-7.964,7.964v2.654v5.375v7.964v3.254h15.927v-3.254v-7.964
	v-5.375v-2.654C321.786,231.853,318.221,228.288,313.823,228.288z"/>
<path style="fill:#D84545;" d="M446.198,427.337c-1.396-1.206-3.211-1.941-5.2-1.941c-13.272,0-80.721,0-92.442,0
	c-4.399,0-7.964,3.565-7.964,7.964s3.565,7.963,7.964,7.963c10.792,0,74.145,0,84.055,0
	C437.316,436.838,441.844,432.168,446.198,427.337z"/>
<path style="fill:#C93A3A;" d="M363.398,433.36c0-4.399,3.565-7.964,7.964-7.964c-0.215,0-7.135,0-6.986,0c-0.371,0-8.158,0-7.857,0
	h-7.964c-4.399,0-7.964,3.565-7.964,7.964s3.565,7.964,7.964,7.964c9.119,0,12.951,0,22.807,0
	C366.964,441.324,363.398,437.759,363.398,433.36z"/>
<path style="fill:#77C680;" d="M336.249,222.12c0-15.178,6.465-29.003,16.618-38.74l0,0l0,0c2.67-2.509,34.565-31.418,34.733-31.572
	c1.218-1.107,3.079-1.107,4.297,0c0.105,0.095,34.393,31.252,34.736,31.574l0,0l0,0c10.153,9.737,16.615,23.559,16.615,38.738
	c0,8.498-1.99,16.528-5.516,23.664l-8.268,15.774h-39.716h-39.716l-8.268-15.774l0,0
	C338.239,238.648,336.249,230.618,336.249,222.12z"/>
<path style="fill:#68BA6E;" d="M391.898,151.808c-1.219-1.107-3.079-1.107-4.297,0c-0.105,0.095-34.409,31.266-34.733,31.571
	c-10.153,9.737-16.618,23.562-16.618,38.74c0,8.499,1.99,16.528,5.516,23.665l8.268,15.774h21.4l-4.587-15.774
	c-1.956-7.137-3.06-15.166-3.06-23.665c0-15.178,3.585-29.001,9.217-38.737c0.239-0.404,0.632-1.054,0.878-1.443l18.258-29.911
	L391.898,151.808z"/>
<path style="fill:#F95E5A;" d="M415.569,261.559c-11.876-22.682-33.193-47.19-70.819-68.291c5.185-8.087,6.709-8.622,42.851-41.46
	c1.218-1.107,3.079-1.107,4.297,0c0.105,0.095,34.394,31.253,34.736,31.574c10.153,9.737,16.615,23.559,16.615,38.737
	c0,8.498-1.99,16.528-5.516,23.665l-8.268,15.774h-13.896V261.559z"/>
<path style="fill:#EA5050;" d="M391.898,151.808c-1.219-1.107-3.079-1.107-4.297,0c-34.817,31.635-37.619,33.3-42.851,41.459
	c7.423,4.163,14.203,8.46,20.409,12.849c1.534-8.754,4.276-16.565,7.845-22.734c0.239-0.404,0.632-1.054,0.878-1.443l18.258-29.911
	L391.898,151.808z"/>
<path style="fill:#F95E5A;" d="M382.328,261.559h-32.295l-8.268-15.774c-3.526-7.137-5.516-15.167-5.516-23.665
	c0-0.73,0.028-1.454,0.058-2.177C356.835,233.179,371.661,247.438,382.328,261.559z"/>
<path style="fill:#EA5050;" d="M366.259,243.485c-8.309-8.038-18.191-15.958-29.953-23.542c-0.03,0.724-0.058,1.447-0.058,2.178
	c0,8.499,1.99,16.528,5.516,23.665l8.268,15.774h21.4l-4.587-15.774C366.639,245.03,366.447,244.259,366.259,243.485z"/>
<path style="fill:#77C680;" d="M436.542,248.057c-9.562-24.643-29.483-52.953-69.775-77.315l20.834-18.934
	c1.218-1.107,3.079-1.107,4.297,0c0.105,0.095,34.394,31.253,34.736,31.574c10.153,9.737,16.615,23.559,16.615,38.737
	c0,8.498-1.99,16.528-5.516,23.665L436.542,248.057z"/>
<path style="fill:#68BA6E;" d="M387.601,151.808l-20.834,18.934c3.496,2.114,6.829,4.26,10.025,6.428l15.348-25.142l-0.241-0.219
	C390.68,150.701,388.819,150.701,387.601,151.808z"/>
<path style="fill:#E0E2E2;" d="M389.749,129.883c4.399,0,7.964,3.565,7.964,7.964v2.654v5.375v7.964v3.254h-15.927v-3.254v-7.964
	v-5.375v-2.654C381.785,133.448,385.35,129.883,389.749,129.883z"/>
<path style="fill:#D84545;" d="M428.06,258.294h-7.964h-5.376c-8.127,0-27.628,0-41.98,0h-7.964h-5.375h-7.964
	c-4.399,0-7.964,3.565-7.964,7.964s3.565,7.964,7.964,7.964h7.964h5.375h7.964c10.041,0,40.329,0,55.319,0
	c4.399,0,7.964-3.565,7.964-7.964C436.023,261.859,432.458,258.294,428.06,258.294z"/>
<path style="fill:#C93A3A;" d="M364.047,266.258c0-4.399,3.565-7.964,7.964-7.964h-7.234h-5.375h-7.964
	c-4.399,0-7.964,3.565-7.964,7.964c0,4.398,3.565,7.964,7.964,7.964h7.964h5.375h7.234
	C367.612,274.221,364.047,270.656,364.047,266.258z"/>
<rect x="128.49" y="441.32" style="fill:#F97D7D;" width="100.98" height="17.02"/>
<rect x="128.49" y="441.32" style="fill:#FC6D6D;" width="34.899" height="17.02"/>
<rect x="229.47" y="441.32" style="fill:#F95E5A;" width="46.545" height="17.02"/>
<rect x="229.47" y="441.32" style="fill:#EA5050;" width="7.145" height="17.02"/>
<path style="fill:#F95E5A;" d="M351.937,441.324v17.025h60.874c6.885-5.344,13.499-11.02,19.799-17.025H351.937z"/>
<rect x="351.94" y="441.32" style="fill:#EA5050;" width="19.02" height="17.02"/>
<path style="fill:#F95E5A;" d="M84.103,445.702c0.198,0.179,0.401,0.353,0.6,0.532c1.429,1.286,2.868,2.561,4.326,3.815
	c0.077,0.066,0.156,0.131,0.233,0.197c5.017,4.303,8.327,6.829,9.927,8.104h29.302v-17.025h-49.1
	C80.942,442.803,82.514,444.262,84.103,445.702z"/>
<g>
	<path style="fill:#F97D7D;" d="M228.829,340.761c-7.361,0-13.941,0-21.303,0h-1.27c-14.908,0-26.721,0-40.71,0
		c-13.399,0-22.608,0-35.911,0c-4.399,0-7.964,3.565-7.964,7.964s3.565,7.964,7.964,7.964c10.915,0,23.385,0,35.911,0
		c19.449,0,43.811,0,63.283,0c4.399,0,7.964-3.565,7.964-7.964S233.228,340.761,228.829,340.761z"/>
	<path style="fill:#F97D7D;" d="M228.829,372.616c-25.121,0,11.167,0-35.911,0c-10.31,0-47.155,0-63.283,0
		c-4.399,0-7.964,3.565-7.964,7.964s3.565,7.964,7.964,7.964c72.844,0,50.929,0,99.194,0c4.399,0,7.964-3.565,7.964-7.964
		S233.228,372.616,228.829,372.616z"/>
</g>
<g>
	<path style="fill:#FC6D6D;" d="M155.426,348.725c0-4.399,3.565-7.964,7.964-7.964c-24.225,0-9.719,0-33.755,0
		c-4.399,0-7.964,3.565-7.964,7.964s3.565,7.964,7.964,7.964c10.858,0,23.154,0,33.755,0
		C158.991,356.688,155.426,353.123,155.426,348.725z"/>
	<path style="fill:#FC6D6D;" d="M155.426,380.579c0-4.399,3.565-7.964,7.964-7.964c-23.72,0-17.272,0-33.755,0
		c-4.399,0-7.964,3.565-7.964,7.964s3.565,7.964,7.964,7.964c6.786,0,21.98,0,33.755,0
		C158.991,388.543,155.426,384.978,155.426,380.579z"/>
	<rect x="276.02" y="369.43" style="fill:#FC6D6D;" width="75.62" height="88.92"/>
</g>
<rect x="276.02" y="369.43" style="fill:#F95E5A;" width="23.03" height="88.92"/>
<path style="fill:#F97D7D;" d="M352.144,356.689h-7.964h-5.375h-7.964h-34.016h-7.964h-5.375h-7.964
	c-4.399,0-7.964,3.565-7.964,7.964s3.565,7.964,7.964,7.964c8.698,0,58.555,0,68.658,0h7.964c4.399,0,7.964-3.565,7.964-7.964
	S356.543,356.689,352.144,356.689z"/>
<path style="fill:#FC6D6D;" d="M292.749,364.652c0-4.399,3.565-7.964,7.964-7.964h-3.887h-7.964h-5.375h-7.964
	c-4.399,0-7.964,3.565-7.964,7.964s3.565,7.964,7.964,7.964c6.675,0,20.894,0,25.19,0
	C296.314,372.616,292.749,369.051,292.749,364.652z"/>
<rect x="276.02" y="441.32" style="fill:#F97D7D;" width="75.916" height="17.02"/>
<rect x="276.02" y="441.32" style="fill:#FC6D6D;" width="23.03" height="17.02"/>
<g>
	<path style="fill:#F9A5A5;" d="M299.05,416.455c-4.391,0-7.964,3.573-7.964,7.964v14.25c0,1.466,1.188,2.655,2.655,2.655h10.618
		c1.466,0,2.655-1.188,2.655-2.655v-14.25C307.013,420.028,303.441,416.455,299.05,416.455z"/>
	<path style="fill:#F9A5A5;" d="M328.595,416.455c-4.391,0-7.964,3.573-7.964,7.964v14.25c0,1.466,1.188,2.655,2.655,2.655h10.618
		c1.466,0,2.655-1.188,2.655-2.655v-14.25C336.559,420.028,332.987,416.455,328.595,416.455z"/>
	<path style="fill:#F9A5A5;" d="M163.39,315.893c-4.391,0-7.964,3.573-7.964,7.964v14.25c0,1.466,1.188,2.655,2.654,2.655h10.618
		c1.466,0,2.654-1.188,2.654-2.655v-14.25C171.353,319.465,167.781,315.893,163.39,315.893z"/>
	<path style="fill:#F9A5A5;" d="M192.935,315.893c-4.391,0-7.964,3.573-7.964,7.964v14.25c0,1.466,1.188,2.655,2.654,2.655h10.618
		c1.466,0,2.655-1.188,2.655-2.655v-14.25C200.899,319.465,197.327,315.893,192.935,315.893z"/>
	<path style="fill:#F9A5A5;" d="M178.163,416.455c-4.392,0-7.964,3.573-7.964,7.964v14.25c0,1.466,1.188,2.655,2.654,2.655h10.618
		c1.466,0,2.655-1.188,2.655-2.655v-14.25C186.126,420.028,182.554,416.455,178.163,416.455z"/>
	<path style="fill:#F9A5A5;" d="M207.708,416.455c-4.391,0-7.964,3.573-7.964,7.964v14.25c0,1.466,1.188,2.655,2.655,2.655h10.618
		c1.466,0,2.654-1.188,2.654-2.655v-14.25C215.671,420.028,212.099,416.455,207.708,416.455z"/>
	<path style="fill:#F9A5A5;" d="M148.617,416.455c-4.391,0-7.964,3.573-7.964,7.964v14.25c0,1.466,1.188,2.655,2.655,2.655h10.618
		c1.466,0,2.654-1.188,2.654-2.655v-14.25C156.581,420.028,153.008,416.455,148.617,416.455z"/>
</g>
<g>
	<path style="fill:#91D896;" d="M178.163,487.01c-4.392,0-7.964,3.573-7.964,7.964v2.274c5.235,1.862,10.541,3.572,15.927,5.097
		v-7.371C186.126,490.583,182.554,487.01,178.163,487.01z"/>
	<path style="fill:#91D896;" d="M237.253,487.01c-4.391,0-7.964,3.573-7.964,7.964v14.25c0,0.533,0.16,1.026,0.43,1.442
		c4.566,0.466,9.168,0.805,13.802,1.027c0.991-0.385,1.695-1.342,1.695-2.469v-14.25C245.217,490.583,241.645,487.01,237.253,487.01
		z"/>
	<path style="fill:#91D896;" d="M207.708,487.01c-4.391,0-7.964,3.573-7.964,7.964v10.81c5.25,1.177,10.56,2.195,15.927,3.044
		v-13.854C215.671,490.583,212.099,487.01,207.708,487.01z"/>
	<path style="fill:#91D896;" d="M296.344,487.01c-4.391,0-7.964,3.573-7.964,7.964v14.25c0,0.256,0.048,0.498,0.115,0.731
		c5.326-0.674,10.594-1.53,15.812-2.527v-12.454C304.308,490.583,300.736,487.01,296.344,487.01z"/>
	<path style="fill:#91D896;" d="M266.799,487.01c-4.391,0-7.964,3.573-7.964,7.964v14.25c0,1.466,1.188,2.655,2.654,2.655h2.104
		c3.367-0.098,6.716-0.268,10.049-0.495c0.675-0.481,1.12-1.266,1.12-2.159v-14.25C274.762,490.583,271.19,487.01,266.799,487.01z"
		/>
	<path style="fill:#91D896;" d="M325.889,487.01c-4.391,0-7.964,3.573-7.964,7.964v9.467c5.378-1.336,10.689-2.841,15.927-4.511
		v-4.956C333.853,490.583,330.281,487.01,325.889,487.01z"/>
</g>
<path style="fill:#68BA6E;" d="M99.188,458.349c7.36,5.712,15.038,11.032,23.006,15.927c79.862,0,109.437,0,189.386,0
	c22.861,0,55.354,0,78.224,0c7.968-4.895,15.646-10.215,23.006-15.927C334.779,458.349,179.034,458.349,99.188,458.349z"/>
<path style="fill:#5AA85E;" d="M163.41,458.349c-22.216,0-47.087,0-64.221,0c7.36,5.712,15.038,11.032,23.006,15.927
	c25.478,0,15.867,0,41.215,0C157.373,470.669,157.367,461.96,163.41,458.349z"/>
<path style="fill:#77C680;" d="M290.794,130.699c-97.745,0,17.858,0-76.622,0c-4.399,0-7.964,3.565-7.964,7.964
	s3.565,7.964,7.964,7.964h7.964h5.375h7.964c12.259,0,43.225,0,55.319,0c4.399,0,7.964-3.565,7.964-7.964
	S295.193,130.699,290.794,130.699z"/>
<path style="fill:#68BA6E;" d="M231.74,138.663c0-4.399,3.565-7.964,7.964-7.964c-5.959,0-20.247,0-25.531,0
	c-4.399,0-7.964,3.565-7.964,7.964c0,4.398,3.565,7.964,7.964,7.964h7.964h5.375h7.964h4.228
	C235.305,146.627,231.74,143.062,231.74,138.663z"/>
</svg>