<?xml version="1.0" encoding="utf-8"?>
<!-- Generator: Adobe Illustrator 25.0.0, SVG Export Plug-In . SVG Version: 6.00 Build 0)  -->
<svg version="1.1" id="Слой_1" xmlns="http://www.w3.org/2000/svg" xmlns:xlink="http://www.w3.org/1999/xlink" x="0px" y="0px"
	 viewBox="0 0 40 40" style="enable-background:new 0 0 40 40;" xml:space="preserve">
<style type="text/css">
	.st0{fill:#24AF73;}
	.st1{fill:#FF6F35;}
	.st2{fill:#E05E1D;}
	.st3{fill:#FFC7CC;}
	.st4{fill:#808080;}
	.st5{fill:#FF8856;}
	.st6{fill:#FFCC77;}
	.st7{fill:#FCB73F;}
	.st8{fill:#F2E368;}
	.st9{fill:#FE99A0;}
</style>
<g id="Слой_2_1_">
	<path class="st0" d="M30,40H10C4.5,40,0,35.5,0,30V10C0,4.5,4.5,0,10,0h20c5.5,0,10,4.5,10,10v20C40,35.5,35.5,40,30,40z"/>
</g>
<g id="Flat">
	<path class="st1" d="M30.4,17.7l-2.6-0.5l-5.2,1.6L21,19.8l-1.5,0.6c-1.7,0.7-3.1,2-3.7,3.8l-1.1,3.1v7.9h17.8l2.2-7.5
		C35.9,23.8,34.1,19.6,30.4,17.7z"/>
	<path class="st2" d="M18.4,32.5l-0.3-1l9.4-2.5l1.4-5.7l1,0.3l-1.6,6.4L18.4,32.5z"/>
	<path class="st3" d="M19.9,8.2L17.3,13h2.1v4.2h3.1v1.6l1.6,1.6l3.7-3.2v-2.1l1-5.8L19.9,8.2z"/>
	<path class="st4" d="M23.6,8.7v3.2l1.6-1.6l1.6,1.1l-1.6,2.1l2.6,1.6l1-5.8L23.6,8.7z"/>
	<path class="st1" d="M29,8.8c0,0.3,0,0.7-0.1,1l-9-1.4l0,0l-6.4-0.8l0.1-1l5.6,0.7c0.5-1.8,2.3-2.9,4.1-2.5l2.9,0.6
		C27.8,5.6,29,7.1,29,8.8z"/>
	<path class="st4" d="M21.5,11.4H21c-0.3,0-0.5-0.2-0.5-0.5c0-0.3,0.2-0.5,0.5-0.5h0.5c0.3,0,0.5,0.2,0.5,0.5
		C22,11.1,21.8,11.4,21.5,11.4z"/>
	<path class="st2" d="M23.1,24.5l0.5-4.2l1,0.1l-0.5,4.2L23.1,24.5z"/>
	<path class="st5" d="M22.6,18.8L21,19.8l1,2.1l2.1-1.6L22.6,18.8z"/>
	<path class="st5" d="M24.1,20.4l1,1.6l5.2-4.2l-2.6-0.5L24.1,20.4z"/>
	<path class="st6" d="M4.7,23h8.4v9.5H4.7V23z"/>
	<path class="st7" d="M13.1,23h6.3v9.5h-6.3V23z"/>
	<path class="st7" d="M7.9,23H10v2.1H7.9V23z"/>
	<path class="st8" d="M6.8,27.3H11v3.2H6.8V27.3z"/>
	<path class="st9" d="M22.6,18.8v-1.6l1.6-1.6l0.7,0.7L22.6,18.8z"/>
	<path class="st9" d="M9.5,32.5H5.8c-0.6,0-1.1,0.5-1.1,1.1l0,0c0,0.6,0.4,1,1,1.1l3.7,0.4h7.3v-2.6L9.5,32.5z"/>
	<path class="st3" d="M18.4,32.5v2.6h-4.2l-3.7-0.4c-0.6-0.1-1-0.6-1-1.2c0.1-0.6,0.5-1,1.1-1h3.6c0.7,0,1.3-0.6,1.3-1.3
		c0-0.1,0-0.2,0-0.3l0,0c-0.1-0.5,0.2-0.9,0.7-1c0.1,0,0.1,0,0.2,0h0c0.3,0,0.6,0.2,0.7,0.4L18.4,32.5z"/>
</g>
</svg>
