<?xml version="1.0" encoding="utf-8"?>
<!-- Generator: Adobe Illustrator 25.0.0, SVG Export Plug-In . SVG Version: 6.00 Build 0)  -->
<svg version="1.1" xmlns="http://www.w3.org/2000/svg" xmlns:xlink="http://www.w3.org/1999/xlink" x="0px" y="0px"
	 viewBox="0 0 40 40" style="enable-background:new 0 0 40 40;" xml:space="preserve">
<style type="text/css">
	.st0{fill:#8CFF80;}
	.st1{fill:#D29B6E;}
	.st2{fill:#FF8087;}
	.st3{fill:#E6646E;}
	.st4{fill:#E3AA75;}
	.st5{fill:#FFF0BE;}
	.st6{fill:#FFE17D;}
	.st7{fill:#D4F582;}
	.st8{fill:#BEE86E;}
	.st9{fill:#C4DEFF;}
</style>
<g id="Слой_3">
	<g id="Слой_2_1_">
		<path class="st0" d="M30,40H10C4.5,40,0,35.5,0,30V10C0,4.5,4.5,0,10,0h20c5.5,0,10,4.5,10,10v20C40,35.5,35.5,40,30,40z"/>
	</g>
</g>
<g id="Слой_2">
	<path class="st1" d="M23.9,10.6h1l-0.7-3.8c-0.1-0.5-0.5-0.8-1-0.8h-6.5c-0.5,0-0.9,0.4-1,0.8l-0.7,3.8h1l0.4-2.1
		c0-0.2,0.3-0.4,0.5-0.4h6c0.2,0,0.5,0.2,0.5,0.4L23.9,10.6z"/>
	<path class="st2" d="M33.8,33.1H6.2c-1.1,0-2-0.9-2-2V12.7c0-1.1,0.9-2,2-2h27.5c1.1,0,2,0.9,2,2V31C35.8,32.2,34.9,33.1,33.8,33.1
		z"/>
	<path class="st3" d="M9.3,32.1c-1.1,0-2-0.9-2-2V10.6h-1c-1.1,0-2,0.9-2,2V31c0,1.1,0.9,2,2,2h27.5c0.8,0,1.4-0.4,1.8-1L9.3,32.1
		L9.3,32.1z"/>
	<rect x="9.3" y="10.6" class="st4" width="2" height="22.4"/>
	<rect x="9.3" y="17.8" class="st1" width="2" height="4.1"/>
	<path class="st5" d="M11.3,17.8v2h-2v-2H11.3 M11.3,16.8h-2c-0.6,0-1,0.5-1,1v2c0,0.6,0.5,1,1,1h2c0.6,0,1-0.5,1-1v-2
		C12.3,17.2,11.9,16.8,11.3,16.8L11.3,16.8z"/>
	<path class="st6" d="M10.3,21.3c-0.3,0-0.5-0.2-0.5-0.5v-1.5c0-0.3,0.2-0.5,0.5-0.5c0.3,0,0.5,0.2,0.5,0.5v1.5
		C10.8,21.1,10.6,21.3,10.3,21.3z"/>
	<circle class="st7" cx="18" cy="17.3" r="3.1"/>
	<circle class="st8" cx="18" cy="17.3" r="1.5"/>
	<path class="st6" d="M24.4,21.5l0.3,1.4l1.3,0.6c0.4,0.2,0.4,0.7,0,0.9l-1.3,0.7l-0.2,1.4c0,0.4-0.6,0.6-0.9,0.3l-1-1l-1.4,0.3
		c-0.4,0.1-0.7-0.3-0.6-0.7l0.6-1.3l-0.7-1.2c-0.2-0.4,0.1-0.8,0.5-0.8l1.4,0.2l1-1.1C23.8,20.9,24.3,21.1,24.4,21.5z"/>
	<path class="st9" d="M17.4,27.9l-1.2,0.5c-0.5,0.2-1.1-0.1-1.3-0.6l-0.5-1.2c-0.2-0.5,0.1-1.1,0.6-1.3l1.2-0.5
		c0.5-0.2,1.1,0.1,1.3,0.6l0.5,1.2C18.2,27.1,17.9,27.7,17.4,27.9z"/>
	<path class="st4" d="M15.8,6.9l0,0.2h8.5l0-0.2c-0.1-0.5-0.5-0.8-1-0.8h-6.5C16.3,6,15.9,6.4,15.8,6.9z"/>
	<rect x="9.3" y="32.1" class="st1" width="2" height="1"/>
	<rect x="28.7" y="10.6" class="st4" width="2" height="22.4"/>
	<rect x="28.7" y="17.8" class="st1" width="2" height="4.1"/>
	<path class="st5" d="M30.7,17.8v2h-2v-2H30.7 M30.7,16.8h-2c-0.6,0-1,0.5-1,1v2c0,0.6,0.5,1,1,1h2c0.6,0,1-0.5,1-1v-2
		C31.7,17.2,31.3,16.8,30.7,16.8L30.7,16.8z"/>
	<path class="st6" d="M29.7,21.3c-0.3,0-0.5-0.2-0.5-0.5v-1.5c0-0.3,0.2-0.5,0.5-0.5c0.3,0,0.5,0.2,0.5,0.5v1.5
		C30.2,21.1,30,21.3,29.7,21.3z"/>
	<rect x="28.7" y="32.1" class="st1" width="2" height="1"/>
</g>
</svg>
