<?xml version="1.0" encoding="utf-8"?>
<!-- Generator: Adobe Illustrator 25.0.0, SVG Export Plug-In . SVG Version: 6.00 Build 0)  -->
<svg version="1.1" id="Слой_1" xmlns="http://www.w3.org/2000/svg" xmlns:xlink="http://www.w3.org/1999/xlink" x="0px" y="0px"
	 viewBox="0 0 512 512" style="enable-background:new 0 0 512 512;" xml:space="preserve">
<style type="text/css">
	.st0{fill:#DAD8DB;}
	.st1{fill:#5D5360;}
	.st2{fill:#4B3F4E;}
	.st3{fill:#6F6571;}
	.st4{fill:#857E87;}
	.st5{fill:#FFE07D;}
	.st6{fill:#FFD064;}
</style>
<path class="st0" d="M454.2,171.6h16.5V378h-16.5V171.6z"/>
<path class="st1" d="M505.6,145.3l-233.4-99c-10.3-4.4-21.9-4.4-32.2,0l-233.4,99c-8.6,3.6-8.6,15.8,0,19.5l109.2,46.3l280.8,0
	l109.2-46.3C514.1,161.1,514.1,149,505.6,145.3z"/>
<path class="st2" d="M256,130.3c-26.2,0-156.9,2.4-156.9,49.5c0,47.2,130.7,49.5,156.9,49.5s156.9-2.4,156.9-49.5
	S282.2,130.3,256,130.3z"/>
<path class="st3" d="M396.4,179.8c0-18.2-62.9-33-140.4-33s-140.4,14.8-140.4,33v107.3h280.8V179.8z"/>
<path class="st4" d="M256,163.3c-12.2,0-24.1,0.4-35.4,1.1c-17.3,1.1-30.7,15.6-30.7,33v89.8h206.4v-90.8
	C396.4,178.1,333.5,163.3,256,163.3z"/>
<path class="st5" d="M479,378c0,9.1-7.4,16.5-16.5,16.5s-16.5-7.4-16.5-16.5s7.4-16.5,16.5-16.5S479,368.9,479,378z"/>
<path class="st5" d="M462.4,394.5c-9.1,0-16.5,7.4-16.5,16.5v49.5c0,4.6,3.7,8.3,8.3,8.3h16.5c4.6,0,8.3-3.7,8.3-8.3V411
	C479,401.9,471.6,394.5,462.4,394.5z"/>
<path class="st6" d="M454.2,468.8h8.3v-74.3c-9.1,0-16.5,7.4-16.5,16.5v49.5C445.9,465.1,449.6,468.8,454.2,468.8z"/>
<path class="st2" d="M396.4,287.2c0-18.2-62.9-33-140.4-33s-140.4,14.8-140.4,33s62.9,33,140.4,33S396.4,305.4,396.4,287.2z"/>
</svg>
