<?xml version="1.0" encoding="utf-8"?>
<!-- Generator: Adobe Illustrator 25.0.0, SVG Export Plug-In . SVG Version: 6.00 Build 0)  -->
<svg version="1.1" id="Слой_2" xmlns="http://www.w3.org/2000/svg" xmlns:xlink="http://www.w3.org/1999/xlink" x="0px" y="0px"
	 viewBox="0 0 198 198" style="enable-background:new 0 0 198 198;" xml:space="preserve">
<style type="text/css">
	.st0{fill:#2ABD00;}
	.st1{fill:#FFFFFF;stroke:#FFFFFF;stroke-width:4;stroke-miterlimit:10;}
</style>
<rect class="st0" width="198" height="99"/>
<rect class="st0" width="99" height="198"/>
<circle class="st0" cx="99" cy="99" r="99"/>
<g>
	<path class="st1" d="M133,125l16.72,0.02c-2.72,5.98-6.8,11.49-12.15,16.41c-5.35,4.92-11.37,8.67-18.05,11.23
		c-6.69,2.57-14.25,3.85-22.7,3.85c-18.72,0-33.36-6.13-43.92-18.4c-10.56-12.27-15.83-26.14-15.83-41.61
		c0-14.55,4.47-27.53,13.41-38.92c11.33-14.48,26.5-21.73,45.5-21.73c19.56,0,35.19,7.42,46.87,22.25
		c8.3,10.48,12.53,23.56,12.67,39.23H52.26c0.28,13.33,4.54,24.25,12.78,32.78c8.24,8.52,18.41,12.79,30.52,12.79
		c5.84,0,11.53-1.02,17.05-3.05c5.53-2.03,10.22-4.73,14.1-8.09C130.58,128.41,131,128,133,125z M139.27,84.58
		c-1.97-7.87-4.84-14.17-8.61-18.88c-3.77-4.71-8.75-8.51-14.94-11.39c-6.2-2.88-12.71-4.32-19.54-4.32
		c-11.27,0-20.95,3.62-29.04,10.86c-5.91,5.27-10.39,13.18-13.41,23.73H139.27z"/>
</g>
</svg>
